<?xml version="1.0" encoding="UTF-8"?>
<svg width="132px" height="24px" viewBox="0 0 132 24" version="1.1" xmlns="http://www.w3.org/2000/svg" xmlns:xlink="http://www.w3.org/1999/xlink">
    <title>Group 12 Copy 8</title>
    <defs>
        <path d="M5.2,7.45 C5.15,7.3 5.35,7.05 5.45,6.95 C7.3,5.3 9.65,4.5 12.1,4.5 L12.3,4.5 L12.5,4.5 C14.95,4.5 17.3,5.3 19.15,6.95 C19.25,7.05 19.45,7.3 19.4,7.45 C19.35,7.6 19.1,7.7 18.95,7.7 C16.8,8.15 14.8,9 13.1,10 C12.85,10.15 12.7,10.25 12.5,10.35 C12.45,10.4 12.35,10.4 12.25,10.4 C12.15,10.4 12.1,10.4 12,10.35 C11.85,10.25 11.65,10.1 11.4,10 C9.75,9 7.7,8.15 5.55,7.7 C5.5,7.65 5.25,7.6 5.2,7.45 L5.2,7.45 Z M3.55,13.9 C3.55,12.8 4,11.75 4.75,10.95 C4.85,10.85 4.9,10.7 4.9,10.6 C4.9,10.45 4.8,10.35 4.7,10.25 C4.4,10.05 4.05,9.85 3.75,9.7 C3.7,9.65 3.6,9.65 3.55,9.65 C3.4,9.65 3.25,9.75 3.15,9.9 C2.4,11.4 2,13.1 2,14.8 C2,15.3 2.05,15.85 2.1,16.35 C2.1,16.5 2.25,16.65 2.4,16.7 C2.65,16.8 2.85,16.85 3.1,16.85 C3.4,16.85 3.65,16.8 3.95,16.65 C4.05,16.6 4.15,16.5 4.2,16.35 C4.25,16.25 4.2,16.1 4.15,16 C3.75,15.4 3.55,14.65 3.55,13.9 L3.55,13.9 Z M22,8.3 C22,8.2 21.9,8 21.5,7.95 C21.5,7.95 21.5,7.95 21.45,7.95 C19.55,7.95 18.65,8.3 16.9,8.95 C14.75,9.75 13.15,10.75 12.55,11.2 C12.45,11.25 12.4,11.3 12.3,11.3 C12.2,11.3 12.05,11.2 11.95,11.15 C11.25,10.7 9.75,9.75 7.65,8.95 C5.9,8.3 5,7.95 3.1,7.95 C3.1,7.95 3.1,7.95 3.05,7.95 C2.65,8 2.55,8.2 2.55,8.3 L2.55,8.35 L2.55,8.4 C2.55,8.45 2.55,8.45 2.6,8.5 C2.65,8.6 2.75,8.7 3,8.8 C3.05,8.8 3.05,8.8 3.1,8.85 C5.35,9.7 6.75,10.9 8.05,12.15 C9.75,13.9 10.9,16.5 11.55,19.1 C11.65,19.4 11.9,19.5 12.15,19.5 L12.2,19.5 L12.25,19.5 L12.3,19.5 L12.35,19.5 C12.55,19.5 12.85,19.4 12.95,19.1 C13.65,16.5 14.75,13.9 16.45,12.15 C17.75,10.85 19.2,9.7 21.4,8.85 C21.45,8.85 21.45,8.85 21.5,8.8 C21.75,8.7 21.85,8.6 21.9,8.5 C21.9,8.45 21.95,8.45 21.95,8.4 L21.95,8.35 C22,8.35 22,8.3 22,8.3 L22,8.3 Z M7.4,15.15 C6.6,15.15 5.95,14.5 5.95,13.65 C5.95,12.95 6.45,12.35 7.1,12.2 C6.65,11.75 6.2,11.35 5.7,10.95 C4.85,11.55 4.25,12.6 4.25,13.75 C4.25,15.6 5.7,17.1 7.55,17.1 C8.45,17.1 9.35,16.65 9.95,16.05 C9.6,15.4 9.2,14.75 8.8,14.15 C8.55,14.75 8,15.15 7.4,15.15 L7.4,15.15 Z" id="path-1"></path>
        <path d="M12.000074,1 L13.8082283,10.1922158 L23,12.0005181 L13.8082283,13.8085244 L12.000074,23.0002961 L10.1917717,13.8085244 L1,12.0005181 L10.1917717,10.1922158 L12.000074,1 Z M20.6232409,13.7616551 C19.922866,17.2083104 17.2081179,19.9230585 13.7611666,20.6232853 L13.7611666,20.6232853 L14.2184605,18.2984732 C16.1201758,17.6265219 17.6260334,16.1205163 18.2982807,14.2189491 L18.2982807,14.2189491 Z M3.37675915,13.7616699 L5.70171928,14.2189639 C6.37381854,16.1205311 7.87982424,17.6263887 9.78153948,18.298488 L9.78153948,18.298488 L10.2388334,20.6233001 C6.79188205,19.9230733 4.07713396,17.2083252 3.37675915,13.7616699 L3.37675915,13.7616699 Z M13.7611517,3.37702562 C17.2083992,4.07725239 19.9231473,6.79214852 20.6233741,10.239396 L20.6233741,10.239396 L18.298562,9.78225007 C17.6264627,7.88023875 16.120457,6.37408502 14.2184457,5.70183771 L14.2184457,5.70183771 Z M10.2388927,3.37702562 L9.78159869,5.70183771 C7.87958737,6.37408502 6.37358168,7.88023875 5.70148241,9.78225007 L5.70148241,9.78225007 L3.37667032,10.239544 C4.07674905,6.79214852 6.79164519,4.07725239 10.2388927,3.37702562 L10.2388927,3.37702562 Z" id="path-3"></path>
        <path d="M18.6367404,8.35983981 L18.9461599,8.64200757 L20.9985004,10.5136782 L21,10.5002657 L21,21.5 L3.03942723,21.5 L3.03942723,19.2531602 L3.7787347,18.428547 L5.40256183,16.6177386 L5.40256183,19.1071415 L18.6367404,19.1071415 L18.6367404,8.35983981 Z M20.4537048,2.5 L19.8952252,7.57522365 L18.4608487,6.26712935 L12.8413122,12.5339107 L12.8460609,12.5379598 L11.5309034,14.0045995 L8.40646707,11.1323088 L3,17.1613354 L3,14.2143906 L8.26287946,8.34542774 L8.28062484,8.36175045 L8.29087217,8.35036252 L11.3928144,11.2020283 L17.0071023,4.94144703 L15.5267378,3.5913439 L20.4537048,2.5 Z" id="path-5"></path>
        <path d="M18.6017697,14.5282493 C18.1503656,14.5282493 17.7280883,14.6559361 17.3675058,14.8774106 L15.8149362,13.5904982 C16.0985846,13.009316 16.2590893,12.3545601 16.2590893,11.6610084 C16.2590893,10.5594114 15.8556154,9.5543642 15.1924582,8.79012656 L16.4031257,7.27973082 C16.7069294,7.40189333 17.0374019,7.4698172 17.3837283,7.4698172 C18.8623133,7.4698172 20.060814,6.24530434 20.060814,4.7349086 C20.060814,3.22451286 18.8623133,2 17.3837283,2 C15.9052662,2 14.7066426,3.22451286 14.7066426,4.7349086 C14.7066426,5.28194054 14.8645665,5.7911812 15.1354335,6.21856167 L13.8888798,7.77390518 C13.3250241,7.49053335 12.6911165,7.33083065 12.0203396,7.33083065 C11.0267098,7.33083065 10.1137011,7.68099638 9.39093833,8.26594516 L7.70834272,6.87143431 C7.7691772,6.6666583 7.80260544,6.44957814 7.80260544,6.22446264 C7.80260544,4.99731318 6.82876221,4.00243572 5.62743492,4.00243572 C4.42623052,4.00243572 3.45238729,4.99731318 3.45238729,6.22446264 C3.45238729,7.45173765 4.42623052,8.44661511 5.62743492,8.44661511 C6.00768112,8.44661511 6.36469962,8.34642427 6.67563139,8.17127863 L8.32590484,9.53904681 C7.97994715,10.1663067 7.78171279,10.8898654 7.78171279,11.6610084 C7.78171279,12.6537515 8.10948158,13.5678988 8.65957272,14.2982372 L7.21380144,16.102049 C6.84547633,15.9380775 6.43917576,15.8464243 6.01173675,15.8464243 C4.34831323,15.8464243 3,17.2239855 3,18.9232121 C3,20.6224387 4.34831323,22 6.01173675,22 C7.67503738,22 9.02335061,20.6224387 9.02335061,18.9232121 C9.02335061,18.2684562 8.82265828,17.662038 8.48137072,17.1632182 L9.89101002,15.4044797 C10.5168063,15.7768682 11.2438705,15.9911862 12.0203396,15.9911862 C13.0907806,15.9911862 14.0675734,15.5851497 14.8136867,14.916583 L16.335286,16.1777571 C16.2503636,16.4287364 16.2035395,16.6977953 16.2035395,16.9782794 C16.2035395,18.3312324 17.2772987,19.428184 18.6017697,19.428184 C19.9262408,19.428184 21,18.3312324 21,16.9782794 C21,15.6250753 19.9262408,14.5282493 18.6017697,14.5282493" id="path-7"></path>
    </defs>
    <g id="Add-User/Edit-User" stroke="none" stroke-width="1" fill="none" fill-rule="evenodd">
        <g id="7.0.0-User-Management" transform="translate(-1149.000000, -844.000000)">
            <g id="Content" transform="translate(125.000000, 102.000000)">
                <g id="Group" transform="translate(35.000000, 111.000000)">
                    <g id="Product" transform="translate(973.000000, 0.000000)">
                        <g id="Group-12-Copy-8" transform="translate(16.000000, 631.000000)">
                            <g id="Logo-/-Automate">
                                <mask id="mask-2" fill="white">
                                    <use xlink:href="#path-1"></use>
                                </mask>
                                <use id="Mask" fill="#000000" fill-rule="nonzero" xlink:href="#path-1"></use>
                                <g id="Group" mask="url(#mask-2)" fill="#0067B1">
                                    <g id="Rectangle-218">
                                        <polygon points="0 0 24 0 24 24 0 24"></polygon>
                                    </g>
                                </g>
                            </g>
                            <g id="Logo-/-Manage" transform="translate(28.000000, 0.000000)">
                                <mask id="mask-4" fill="white">
                                    <use xlink:href="#path-3"></use>
                                </mask>
                                <use id="Combined-Shape" fill="#000000" xlink:href="#path-3"></use>
                                <g id="Group" mask="url(#mask-4)" fill="#54BEED">
                                    <g id="Rectangle-218">
                                        <polygon points="0 0 24 0 24 24 0 24"></polygon>
                                    </g>
                                </g>
                            </g>
                            <g id="Logo-/-Sell" transform="translate(56.000000, 0.000000)">
                                <mask id="mask-6" fill="white">
                                    <use xlink:href="#path-5"></use>
                                </mask>
                                <use id="Combined-Shape" fill="#000000" xlink:href="#path-5"></use>
                                <g id="Group" mask="url(#mask-6)" fill="#7C5EA3">
                                    <g id="Rectangle-218">
                                        <polygon points="0 0 24 0 24 24 0 24"></polygon>
                                    </g>
                                </g>
                            </g>
                            <g id="Logo-/-Unite" transform="translate(84.000000, 0.000000)">
                                <mask id="mask-8" fill="white">
                                    <use xlink:href="#path-7"></use>
                                </mask>
                                <use id="Fill-1" fill="#000000" xlink:href="#path-7"></use>
                                <g id="Group" mask="url(#mask-8)" fill="#EF7D31">
                                    <g id="Rectangle-218">
                                        <polygon points="0 0 24 0 24 24 0 24"></polygon>
                                    </g>
                                </g>
                            </g>
                            <g id="Logo-/-Command" transform="translate(112.000000, 2.000000)" fill="#8CC44D" fill-rule="nonzero">
                                <polygon id="Path" points="5.03011063 3.01367859 5.03011063 3.01367859 3.23813372 1.34591471 1.79197691 0 1.19465127 0.555921293 0 1.66776388 0 1.66776388 0 1.66776388 8.4568735 9.53843903 4.24415584 13.4591471 0 17.4091142 0 17.4091142 1.35184223 18.6379928 1.79197691 19.047619 12.0408273 9.53843903"></polygon>
                                <polygon id="Path" stroke="#8CC44D" stroke-width="0.5" points="5.75318903 1.34591471 7.575731 3.01367859 17.2639804 3.01367859 17.2639804 14.8928389 17.2639804 14.8928389 17.2639804 18.4039207 19.0865224 18.4039207 19.0865224 1.34591471"></polygon>
                                <polygon id="Path" points="7.78106303 16.0631995 5.03011063 18.4039207 15.5808222 18.4039207 15.5808222 16.0631995"></polygon>
                            </g>
                        </g>
                    </g>
                </g>
            </g>
        </g>
    </g>
</svg>