<svg id="Layer_1" data-name="Layer 1" xmlns="http://www.w3.org/2000/svg" xmlns:xlink="http://www.w3.org/1999/xlink" viewBox="0 0 48 48"><defs><style>.cls-1,.cls-2{fill:none;}.cls-2{clip-rule:evenodd;}.cls-3{clip-path:url(#clip-path);}.cls-4{clip-path:url(#clip-path-2);}.cls-5{clip-path:url(#clip-path-3);}.cls-6{clip-path:url(#clip-path-4);}.cls-7{clip-path:url(#clip-path-5);}.cls-8{clip-path:url(#clip-path-6);}.cls-9{clip-path:url(#clip-path-7);}.cls-10{clip-path:url(#clip-path-8);}.cls-11{clip-path:url(#clip-path-9);}.cls-12{clip-path:url(#clip-path-10);}.cls-13{clip-path:url(#clip-path-11);}.cls-14{clip-path:url(#clip-path-12);}.cls-15{clip-path:url(#clip-path-13);}.cls-16{clip-path:url(#clip-path-14);}.cls-17{clip-path:url(#clip-path-15);}.cls-18{clip-path:url(#clip-path-16);}.cls-19{clip-path:url(#clip-path-17);}.cls-20{clip-path:url(#clip-path-18);}.cls-21{clip-path:url(#clip-path-19);}.cls-22{clip-path:url(#clip-path-20);}.cls-23{clip-path:url(#clip-path-21);}.cls-24{clip-path:url(#clip-path-22);}.cls-25{clip-path:url(#clip-path-23);}.cls-26{clip-path:url(#clip-path-24);}.cls-27{clip-path:url(#clip-path-25);}.cls-28{clip-path:url(#clip-path-26);}.cls-29{clip-path:url(#clip-path-27);}.cls-30{clip-path:url(#clip-path-28);}.cls-31{clip-path:url(#clip-path-29);}.cls-32{clip-path:url(#clip-path-30);}.cls-33{clip-path:url(#clip-path-31);}.cls-34{clip-path:url(#clip-path-32);}.cls-35{clip-path:url(#clip-path-33);}.cls-36{clip-path:url(#clip-path-34);}.cls-37{clip-path:url(#clip-path-35);}.cls-38{clip-path:url(#clip-path-36);}.cls-39{clip-path:url(#clip-path-37);}.cls-40{clip-path:url(#clip-path-38);}.cls-41{clip-path:url(#clip-path-39);}.cls-42{clip-path:url(#clip-path-40);}.cls-43{clip-path:url(#clip-path-41);}.cls-44{clip-path:url(#clip-path-42);}.cls-45{clip-path:url(#clip-path-43);}.cls-46{clip-path:url(#clip-path-44);}.cls-47{clip-path:url(#clip-path-45);}.cls-48{clip-path:url(#clip-path-46);}.cls-49{clip-path:url(#clip-path-47);}.cls-50{clip-path:url(#clip-path-48);}.cls-51{clip-path:url(#clip-path-49);}.cls-52{clip-path:url(#clip-path-50);}.cls-53{clip-path:url(#clip-path-51);}.cls-54{clip-path:url(#clip-path-52);}.cls-55{clip-path:url(#clip-path-53);}.cls-56{clip-path:url(#clip-path-54);}.cls-57{clip-path:url(#clip-path-55);}.cls-58{clip-path:url(#clip-path-56);}.cls-59{clip-path:url(#clip-path-57);}.cls-60{clip-path:url(#clip-path-58);}.cls-61{clip-path:url(#clip-path-59);}.cls-62{clip-path:url(#clip-path-60);}.cls-63{clip-path:url(#clip-path-61);}.cls-64{clip-path:url(#clip-path-62);}.cls-65{clip-path:url(#clip-path-63);}.cls-66{clip-path:url(#clip-path-64);}.cls-67{clip-path:url(#clip-path-65);}.cls-68{clip-path:url(#clip-path-66);}.cls-69{clip-path:url(#clip-path-67);}.cls-70{clip-path:url(#clip-path-68);}.cls-71{clip-path:url(#clip-path-69);}.cls-72{clip-path:url(#clip-path-70);}.cls-73{clip-path:url(#clip-path-71);}.cls-74{clip-path:url(#clip-path-72);}.cls-75{clip-path:url(#clip-path-73);}.cls-76{clip-path:url(#clip-path-74);}.cls-77{clip-path:url(#clip-path-75);}.cls-78{clip-path:url(#clip-path-76);}.cls-79{clip-path:url(#clip-path-77);}.cls-80{clip-path:url(#clip-path-78);}.cls-81{clip-path:url(#clip-path-79);}.cls-82{clip-path:url(#clip-path-80);}.cls-83{clip-path:url(#clip-path-81);}.cls-84{clip-path:url(#clip-path-82);}.cls-85{clip-path:url(#clip-path-83);}.cls-86{clip-path:url(#clip-path-84);}.cls-87{clip-path:url(#clip-path-85);}.cls-88{clip-path:url(#clip-path-86);}.cls-89{clip-path:url(#clip-path-87);}.cls-90{clip-path:url(#clip-path-88);}.cls-91{clip-path:url(#clip-path-89);}.cls-92{clip-path:url(#clip-path-90);}.cls-93{clip-path:url(#clip-path-91);}.cls-94{clip-path:url(#clip-path-92);}.cls-95{clip-path:url(#clip-path-93);}.cls-96{clip-path:url(#clip-path-94);}.cls-97{clip-path:url(#clip-path-95);}.cls-98{clip-path:url(#clip-path-96);}.cls-99{clip-path:url(#clip-path-97);}.cls-100{clip-path:url(#clip-path-98);}.cls-101{clip-path:url(#clip-path-99);}.cls-102{clip-path:url(#clip-path-100);}.cls-103{clip-path:url(#clip-path-101);}.cls-104{clip-path:url(#clip-path-102);}.cls-105{clip-path:url(#clip-path-103);}.cls-106{clip-path:url(#clip-path-104);}.cls-107{clip-path:url(#clip-path-105);}.cls-108{clip-path:url(#clip-path-106);}.cls-109{clip-path:url(#clip-path-107);}.cls-110{clip-path:url(#clip-path-108);}.cls-111{clip-path:url(#clip-path-109);}.cls-112{clip-path:url(#clip-path-110);}.cls-113{clip-path:url(#clip-path-111);}.cls-114{clip-path:url(#clip-path-112);}.cls-115{clip-path:url(#clip-path-113);}.cls-116{clip-path:url(#clip-path-114);}.cls-117{clip-path:url(#clip-path-115);}.cls-118{clip-path:url(#clip-path-116);}.cls-119{clip-path:url(#clip-path-117);}.cls-120{clip-path:url(#clip-path-118);}.cls-121{clip-path:url(#clip-path-119);}.cls-122{clip-path:url(#clip-path-120);}.cls-123{clip-path:url(#clip-path-121);}.cls-124{clip-path:url(#clip-path-122);}.cls-125{clip-path:url(#clip-path-123);}.cls-126{clip-path:url(#clip-path-124);}.cls-127{clip-path:url(#clip-path-125);}.cls-128{clip-path:url(#clip-path-126);}.cls-129{clip-path:url(#clip-path-127);}.cls-130{clip-path:url(#clip-path-128);}.cls-131{clip-path:url(#clip-path-129);}.cls-132{clip-path:url(#clip-path-130);}.cls-133{clip-path:url(#clip-path-131);}.cls-134{clip-path:url(#clip-path-132);}.cls-135{clip-path:url(#clip-path-133);}.cls-136{clip-path:url(#clip-path-134);}.cls-137{clip-path:url(#clip-path-135);}.cls-138{clip-path:url(#clip-path-136);}.cls-139{clip-path:url(#clip-path-137);}.cls-140{clip-path:url(#clip-path-138);}.cls-141{clip-path:url(#clip-path-139);}.cls-142{clip-path:url(#clip-path-140);}.cls-143{clip-path:url(#clip-path-141);}.cls-144{clip-path:url(#clip-path-142);}.cls-145{clip-path:url(#clip-path-143);}.cls-146{clip-path:url(#clip-path-144);}.cls-147{clip-path:url(#clip-path-145);}.cls-148{clip-path:url(#clip-path-146);}.cls-149{clip-path:url(#clip-path-147);}.cls-150{clip-path:url(#clip-path-148);}.cls-151{clip-path:url(#clip-path-149);}.cls-152{clip-path:url(#clip-path-150);}.cls-153{clip-path:url(#clip-path-151);}.cls-154{clip-path:url(#clip-path-152);}.cls-155{clip-path:url(#clip-path-153);}.cls-156{clip-path:url(#clip-path-154);}.cls-157{clip-path:url(#clip-path-155);}.cls-158{clip-path:url(#clip-path-156);}.cls-159{clip-path:url(#clip-path-157);}.cls-160{clip-path:url(#clip-path-158);}.cls-161{clip-path:url(#clip-path-159);}.cls-162{clip-path:url(#clip-path-160);}.cls-163{clip-path:url(#clip-path-161);}.cls-164{clip-path:url(#clip-path-162);}.cls-165{clip-path:url(#clip-path-163);}.cls-166{clip-path:url(#clip-path-164);}.cls-167{clip-path:url(#clip-path-165);}.cls-168{clip-path:url(#clip-path-166);}.cls-169{clip-path:url(#clip-path-167);}.cls-170{clip-path:url(#clip-path-168);}.cls-171{clip-path:url(#clip-path-169);}.cls-172{clip-path:url(#clip-path-170);}.cls-173{clip-path:url(#clip-path-171);}.cls-174{clip-path:url(#clip-path-172);}.cls-175{clip-path:url(#clip-path-173);}.cls-176{clip-path:url(#clip-path-174);}.cls-177{clip-path:url(#clip-path-175);}.cls-178{clip-path:url(#clip-path-176);}.cls-179{clip-path:url(#clip-path-177);}.cls-180{clip-path:url(#clip-path-178);}.cls-181{clip-path:url(#clip-path-179);}.cls-182{clip-path:url(#clip-path-180);}.cls-183{clip-path:url(#clip-path-181);}.cls-184{clip-path:url(#clip-path-182);}.cls-185{clip-path:url(#clip-path-183);}.cls-186{clip-path:url(#clip-path-184);}.cls-187{clip-path:url(#clip-path-185);}.cls-188{clip-path:url(#clip-path-186);}.cls-189{clip-path:url(#clip-path-187);}.cls-190{clip-path:url(#clip-path-188);}.cls-191{clip-path:url(#clip-path-189);}.cls-192{clip-path:url(#clip-path-190);}.cls-193{clip-path:url(#clip-path-191);}.cls-194{clip-path:url(#clip-path-192);}.cls-195{clip-path:url(#clip-path-193);}.cls-196{clip-path:url(#clip-path-194);}.cls-197{clip-path:url(#clip-path-195);}.cls-198{clip-path:url(#clip-path-196);}.cls-199{clip-path:url(#clip-path-197);}.cls-200{clip-path:url(#clip-path-198);}.cls-201{clip-path:url(#clip-path-199);}.cls-202{clip-path:url(#clip-path-200);}.cls-203{clip-path:url(#clip-path-201);}.cls-204{clip-path:url(#clip-path-202);}.cls-205{clip-path:url(#clip-path-203);}.cls-206{clip-path:url(#clip-path-204);}.cls-207{clip-path:url(#clip-path-205);}.cls-208{clip-path:url(#clip-path-206);}.cls-209{clip-path:url(#clip-path-207);}.cls-210{clip-path:url(#clip-path-208);}.cls-211{clip-path:url(#clip-path-209);}.cls-212{clip-path:url(#clip-path-210);}.cls-213{clip-path:url(#clip-path-211);}.cls-214{clip-path:url(#clip-path-212);}.cls-215{clip-path:url(#clip-path-213);}.cls-216{clip-path:url(#clip-path-214);}.cls-217{clip-path:url(#clip-path-215);}.cls-218{clip-path:url(#clip-path-216);}.cls-219{clip-path:url(#clip-path-217);}.cls-220{clip-path:url(#clip-path-218);}.cls-221{clip-path:url(#clip-path-219);}.cls-222{clip-path:url(#clip-path-220);}.cls-223{clip-path:url(#clip-path-221);}.cls-224{clip-path:url(#clip-path-222);}.cls-225{clip-path:url(#clip-path-223);}.cls-226{clip-path:url(#clip-path-224);}.cls-227{clip-path:url(#clip-path-225);}.cls-228{clip-path:url(#clip-path-226);}.cls-229{clip-path:url(#clip-path-227);}.cls-230{clip-path:url(#clip-path-228);}.cls-231{clip-path:url(#clip-path-229);}.cls-232{clip-path:url(#clip-path-230);}.cls-233{clip-path:url(#clip-path-231);}.cls-234{clip-path:url(#clip-path-232);}.cls-235{clip-path:url(#clip-path-233);}.cls-236{clip-path:url(#clip-path-234);}.cls-237{clip-path:url(#clip-path-235);}.cls-238{clip-path:url(#clip-path-236);}.cls-239{clip-path:url(#clip-path-237);}.cls-240{clip-path:url(#clip-path-238);}.cls-241{clip-path:url(#clip-path-239);}.cls-242{clip-path:url(#clip-path-240);}.cls-243{clip-path:url(#clip-path-241);}.cls-244{clip-path:url(#clip-path-242);}.cls-245{clip-path:url(#clip-path-243);}.cls-246{clip-path:url(#clip-path-244);}.cls-247{clip-path:url(#clip-path-245);}.cls-248{clip-path:url(#clip-path-246);}.cls-249{clip-path:url(#clip-path-247);}.cls-250{clip-path:url(#clip-path-248);}.cls-251{clip-path:url(#clip-path-249);}.cls-252{clip-path:url(#clip-path-250);}.cls-253{clip-path:url(#clip-path-251);}.cls-254{clip-path:url(#clip-path-252);}.cls-255{clip-path:url(#clip-path-253);}.cls-256{clip-path:url(#clip-path-254);}.cls-257{clip-path:url(#clip-path-255);}.cls-258{clip-path:url(#clip-path-256);}.cls-259{clip-path:url(#clip-path-257);}.cls-260{clip-path:url(#clip-path-258);}.cls-261{clip-path:url(#clip-path-259);}.cls-262{clip-path:url(#clip-path-260);}.cls-263{clip-path:url(#clip-path-261);}.cls-264{clip-path:url(#clip-path-262);}.cls-265{clip-path:url(#clip-path-263);}.cls-266{clip-path:url(#clip-path-264);}.cls-267{clip-path:url(#clip-path-265);}.cls-268{clip-path:url(#clip-path-266);}.cls-269{clip-path:url(#clip-path-267);}.cls-270{clip-path:url(#clip-path-268);}.cls-271{clip-path:url(#clip-path-269);}.cls-272{clip-path:url(#clip-path-270);}.cls-273{clip-path:url(#clip-path-271);}.cls-274{clip-path:url(#clip-path-272);}.cls-275{clip-path:url(#clip-path-273);}.cls-276{clip-path:url(#clip-path-274);}.cls-277{clip-path:url(#clip-path-275);}.cls-278{clip-path:url(#clip-path-276);}.cls-279{clip-path:url(#clip-path-277);}.cls-280{isolation:isolate;}.cls-281{clip-path:url(#clip-path-278);}.cls-282{clip-path:url(#clip-path-279);}.cls-283{clip-path:url(#clip-path-280);}.cls-284{clip-path:url(#clip-path-281);}.cls-285{clip-path:url(#clip-path-282);}.cls-286{clip-path:url(#clip-path-283);}.cls-287{clip-path:url(#clip-path-284);}.cls-288{clip-path:url(#clip-path-285);}.cls-289{clip-path:url(#clip-path-286);}.cls-290{clip-path:url(#clip-path-287);}.cls-291{clip-path:url(#clip-path-288);}.cls-292{clip-path:url(#clip-path-289);}.cls-293{fill:#7bc633;}.cls-294{clip-path:url(#clip-path-290);}.cls-295{clip-path:url(#clip-path-292);}</style><clipPath id="clip-path"><path class="cls-1" d="M242.8-3812.45l6.3-6.55-6.3-6.55a1,1,0,0,1,0-1.4,1,1,0,0,1,1.4,0l6.3,6.5,6.3-6.5a1,1,0,0,1,1.4,0,1,1,0,0,1,0,1.4l-6.3,6.55,6.35,6.55a1,1,0,0,1,0,1.4,1,1,0,0,1-.7.3,1,1,0,0,1-.7-.3l-6.35-6.5-6.3,6.5a1,1,0,0,1-.7.3,1,1,0,0,1-.7-.3A1,1,0,0,1,242.8-3812.45Z"/></clipPath><clipPath id="clip-path-2"><rect class="cls-1" x="272.5" y="-3558" width="668" height="40" rx="4"/></clipPath><clipPath id="clip-path-3"><rect class="cls-1" x="272.5" y="-3473" width="668" height="145" rx="4"/></clipPath><clipPath id="clip-path-4"><rect class="cls-1" x="290.5" y="-3165.28" width="20" height="20" rx="2"/></clipPath><clipPath id="clip-path-5"><path class="cls-2" d="M367.07-3168.16a3.9,3.9,0,0,1-1.57.28,2.86,2.86,0,0,1-3.1-3,3,3,0,0,1,3.24-3.17,3.4,3.4,0,0,1,1.48.27l-.24.87a3.14,3.14,0,0,0-1.19-.23,2,2,0,0,0-2.13,2.21,2,2,0,0,0,2.12,2.17,3.08,3.08,0,0,0,1.21-.22Z"/></clipPath><clipPath id="clip-path-6"><path class="cls-2" d="M369.62-3171.61c-.79,0-1.1.75-1.1,1.46s.41,1.48,1.09,1.48,1.07-.62,1.07-1.49C370.68-3170.83,370.38-3171.61,369.62-3171.61Zm0-.8a2.09,2.09,0,0,1,2.18,2.22,2.16,2.16,0,0,1-2.25,2.31,2.1,2.1,0,0,1-2.2-2.23A2.15,2.15,0,0,1,369.65-3172.41Z"/></clipPath><clipPath id="clip-path-7"><path class="cls-2" d="M372.55-3171c0-.5,0-.92,0-1.3h1l.06.66h0a1.56,1.56,0,0,1,1.39-.75c.77,0,1.56.49,1.56,1.86v2.58h-1.11v-2.46c0-.62-.24-1.11-.85-1.11a.92.92,0,0,0-.86.65,1.23,1.23,0,0,0,0,.35v2.54h-1.11Z"/></clipPath><clipPath id="clip-path-8"><path class="cls-2" d="M377.52-3171c0-.5,0-.92,0-1.3h1l.06.66h0a1.56,1.56,0,0,1,1.4-.75c.76,0,1.55.49,1.55,1.86v2.58h-1.11v-2.46c0-.62-.24-1.11-.84-1.11a.92.92,0,0,0-.87.65,1.25,1.25,0,0,0,0,.35v2.54h-1.12Z"/></clipPath><clipPath id="clip-path-9"><path class="cls-2" d="M384.3-3171.66a.93.93,0,0,1,.91,1.06h-1.92A1.07,1.07,0,0,1,384.3-3171.66Zm-1,1.83a1.19,1.19,0,0,0,1.35,1.11,3.45,3.45,0,0,0,1.22-.2l.16.76a4.18,4.18,0,0,1-1.53.28,2.07,2.07,0,0,1-2.26-2.2,2.14,2.14,0,0,1,2.14-2.33,1.89,1.89,0,0,1,1.89,2.12,4.19,4.19,0,0,1,0,.46Z"/></clipPath><clipPath id="clip-path-10"><path class="cls-2" d="M390.19-3168.11a3.31,3.31,0,0,1-1.24.23,2.1,2.1,0,0,1-2.26-2.22,2.25,2.25,0,0,1,2.44-2.32,2.65,2.65,0,0,1,1.07.2l-.19.82a2,2,0,0,0-.84-.17,1.3,1.3,0,0,0-1.34,1.41,1.3,1.3,0,0,0,1.34,1.41,2.1,2.1,0,0,0,.87-.18Z"/></clipPath><clipPath id="clip-path-11"><path class="cls-2" d="M392.25-3173.43v1.11h1.06v.83h-1.06v1.91c0,.53.14.8.57.8a1.58,1.58,0,0,0,.43,0l0,.83a2.2,2.2,0,0,1-.8.12,1.29,1.29,0,0,1-1-.36,1.73,1.73,0,0,1-.34-1.21v-2.05h-.63v-.83h.63v-.8Z"/></clipPath><clipPath id="clip-path-12"><path class="cls-2" d="M395-3168l-1.49-6h1.18l.57,2.73c.15.73.29,1.5.4,2.1h0c.1-.63.27-1.35.45-2.11l.66-2.72h1.16l.61,2.76c.15.72.28,1.38.37,2h0c.11-.67.25-1.35.41-2.08L400-3174h1.12l-1.63,6h-1.19l-.63-2.83a17.23,17.23,0,0,1-.33-1.9h0a18.17,18.17,0,0,1-.42,1.9l-.7,2.83Z"/></clipPath><clipPath id="clip-path-13"><path class="cls-2" d="M401.4-3172.32v4.35h1.12v-4.35Zm.57-.63a.57.57,0,0,0,.62-.59.61.61,0,0,0-.61-.6.59.59,0,0,0-.63.6A.58.58,0,0,0,402-3172.95Z"/></clipPath><clipPath id="clip-path-14"><path class="cls-2" d="M403.48-3169a2.5,2.5,0,0,0,1.12.31c.49,0,.71-.19.71-.48s-.19-.45-.73-.63c-.85-.29-1.22-.76-1.21-1.26,0-.77.64-1.37,1.66-1.37a2.86,2.86,0,0,1,1.16.25l-.21.78a2.13,2.13,0,0,0-.93-.24c-.4,0-.62.19-.62.46s.21.4.77.61c.79.29,1.17.68,1.17,1.32s-.63,1.37-1.79,1.37a2.84,2.84,0,0,1-1.33-.31Z"/></clipPath><clipPath id="clip-path-15"><path class="cls-2" d="M408.92-3171.66a1.08,1.08,0,0,0-1,1.06h1.93A.94.94,0,0,0,408.92-3171.66Zm.06-.75a1.88,1.88,0,0,1,1.89,2.12,4.19,4.19,0,0,1,0,.46H407.9a1.19,1.19,0,0,0,1.35,1.11,3.45,3.45,0,0,0,1.22-.2l.17.76a4.19,4.19,0,0,1-1.54.28,2.07,2.07,0,0,1-2.26-2.2A2.15,2.15,0,0,1,409-3172.41Z"/></clipPath><clipPath id="clip-path-16"><path class="cls-2" d="M411.45-3172.29h-.06v-.14s0,0,.07,0,.11,0,.11.08S411.51-3172.29,411.45-3172.29Zm0,.28h-.14v-.51l.21,0a.26.26,0,0,1,.18,0,.13.13,0,0,1,.06.11.13.13,0,0,1-.11.12h0c.05,0,.07.05.1.12s0,.11,0,.13h-.13l0-.11a.1.1,0,0,0-.11-.09h-.06Zm-.34-.26a.4.4,0,0,1,.4-.42.41.41,0,0,1,.41.42.4.4,0,0,1-.4.41A.4.4,0,0,1,411.07-3172.27Zm.94,0a.53.53,0,0,0-.53-.52.53.53,0,0,0-.54.52.53.53,0,0,0,.54.52A.53.53,0,0,0,412-3172.28Z"/></clipPath><clipPath id="clip-path-17"><path class="cls-1" d="M935.3-3151.58l-6-6a1,1,0,0,1-.3-.7,1,1,0,0,1,.3-.7,1,1,0,0,1,1.4,0l5.3,5.3,5.3-5.3a1,1,0,0,1,1.4,0,1,1,0,0,1,0,1.4l-6,6A1,1,0,0,1,935.3-3151.58Z"/></clipPath><clipPath id="clip-path-18"><path class="cls-1" d="M369.45-3065.52a3.6,3.6,0,0,1-1.52.26,2.8,2.8,0,0,1-3-3,3,3,0,0,1,3.15-3.12,3.15,3.15,0,0,1,1.44.27l-.24.85a2.75,2.75,0,0,0-1.15-.23,2,2,0,0,0-2.07,2.19,1.94,1.94,0,0,0,2.07,2.13,2.68,2.68,0,0,0,1.17-.23Z"/></clipPath><clipPath id="clip-path-19"><path class="cls-1" d="M371-3067.49c0,.83.41,1.46,1.05,1.46s1.06-.61,1.06-1.46c0-.67-.31-1.44-1-1.44S371-3068.2,371-3067.49Zm3.22,0a2.11,2.11,0,0,1-2.19,2.27,2.07,2.07,0,0,1-2.14-2.21,2.12,2.12,0,0,1,2.21-2.27A2.06,2.06,0,0,1,374.25-3067.53Z"/></clipPath><clipPath id="clip-path-20"><path class="cls-1" d="M375.12-3068.36a12.45,12.45,0,0,0,0-1.28H376l.06.65h0a1.54,1.54,0,0,1,1.35-.73c.75,0,1.52.49,1.52,1.84v2.54h-1.07v-2.43c0-.61-.23-1.08-.81-1.08a.93.93,0,0,0-.85.63.94.94,0,0,0,0,.34v2.52h-1.1Z"/></clipPath><clipPath id="clip-path-21"><path class="cls-1" d="M380.15-3068.36a12.45,12.45,0,0,0,0-1.28h.95l.06.65h0a1.56,1.56,0,0,1,1.35-.73c.75,0,1.52.49,1.52,1.84v2.54h-1.07v-2.43c0-.61-.22-1.08-.81-1.08a.94.94,0,0,0-.85.63.94.94,0,0,0,0,.34v2.52h-1.09Z"/></clipPath><clipPath id="clip-path-22"><path class="cls-1" d="M387.82-3068c0-.4-.16-1.05-.89-1.05a1.05,1.05,0,0,0-1,1.05Zm-1.88.77a1.17,1.17,0,0,0,1.31,1.12,3,3,0,0,0,1.2-.2l.16.75a4.17,4.17,0,0,1-1.5.26,2,2,0,0,1-2.2-2.17,2.12,2.12,0,0,1,2.08-2.31,1.85,1.85,0,0,1,1.84,2.09,2.43,2.43,0,0,1,0,.46Z"/></clipPath><clipPath id="clip-path-23"><path class="cls-1" d="M392.84-3065.49a2.91,2.91,0,0,1-1.21.23,2.07,2.07,0,0,1-2.21-2.19,2.22,2.22,0,0,1,2.39-2.29,2.45,2.45,0,0,1,1.05.21l-.2.8a1.87,1.87,0,0,0-.81-.16,1.28,1.28,0,0,0-1.31,1.4,1.27,1.27,0,0,0,1.31,1.38,2.17,2.17,0,0,0,.85-.16Z"/></clipPath><clipPath id="clip-path-24"><path class="cls-1" d="M395-3070.73v1.09h1v.81h-1v1.89c0,.52.14.79.55.79a1.17,1.17,0,0,0,.42-.06l0,.83a2.37,2.37,0,0,1-.79.12,1.22,1.22,0,0,1-.93-.37,1.71,1.71,0,0,1-.32-1.19v-2h-.61v-.81H394v-.79Z"/></clipPath><clipPath id="clip-path-25"><path class="cls-1" d="M397.87-3065.36l-1.46-5.92h1.15l.57,2.7.39,2.06h0c.1-.63.26-1.33.42-2.06l.65-2.68h1.13l.59,2.72c.14.71.26,1.35.36,2h0c.1-.65.24-1.34.4-2l.61-2.68h1.09l-1.58,5.92h-1.15l-.61-2.78a16.07,16.07,0,0,1-.32-1.88h0c-.11.63-.23,1.19-.41,1.88l-.69,2.78h-1.17Z"/></clipPath><clipPath id="clip-path-26"><path class="cls-1" d="M404.31-3065.36v-4.28h1.09v4.28Zm1.15-5.47a.58.58,0,0,1-.61.59.56.56,0,0,1-.58-.59.58.58,0,0,1,.6-.59A.58.58,0,0,1,405.46-3070.83Z"/></clipPath><clipPath id="clip-path-27"><path class="cls-1" d="M406.49-3066.36a2.41,2.41,0,0,0,1.1.31c.46,0,.69-.2.69-.47s-.19-.44-.71-.63c-.83-.28-1.2-.75-1.18-1.25a1.44,1.44,0,0,1,1.62-1.34,2.43,2.43,0,0,1,1.14.26l-.2.77a2,2,0,0,0-.92-.24c-.38,0-.6.18-.6.45s.2.4.75.6c.77.29,1.13.67,1.13,1.32s-.61,1.34-1.74,1.34a2.77,2.77,0,0,1-1.3-.31Z"/></clipPath><clipPath id="clip-path-28"><path class="cls-1" d="M412.85-3068c0-.4-.16-1.05-.89-1.05a1.05,1.05,0,0,0-1,1.05Zm-1.88.77a1.17,1.17,0,0,0,1.32,1.12,3,3,0,0,0,1.19-.2l.16.75a4.16,4.16,0,0,1-1.49.26,2,2,0,0,1-2.21-2.17,2.13,2.13,0,0,1,2.08-2.31,1.86,1.86,0,0,1,1.85,2.09,2.43,2.43,0,0,1,0,.46Z"/></clipPath><clipPath id="clip-path-29"><path class="cls-1" d="M376.68-3048.39l-2.51-6.91c-.49-1.44-.77-2.49-1.07-3.64H373c-.31,1.19-.65,2.26-1.08,3.58l-2.55,7Zm-7.73,1.21-2.56,7.25h-1.5l7.5-20.69h1.42l7.45,20.69h-1.5l-2.61-7.25Z"/></clipPath><clipPath id="clip-path-30"><path class="cls-1" d="M396.23-3043.51c0,1.3.06,2.45.12,3.58H395l-.1-2.61h-.06a5.7,5.7,0,0,1-5.06,3c-1.89,0-5-.93-5-6.5v-8.59h1.44v8.28c0,3.2,1,5.49,3.93,5.49a4.77,4.77,0,0,0,4.33-3,4.86,4.86,0,0,0,.31-1.62v-9.17h1.44v11.16Z"/></clipPath><clipPath id="clip-path-31"><path class="cls-1" d="M404-3057.91v3.26h4.22v1.17H404v9.58c0,1.87.59,3.08,2.15,3.08a5.31,5.31,0,0,0,1.68-.24l.18,1.13a4.86,4.86,0,0,1-2.06.37,3.05,3.05,0,0,1-2.51-1.07,5.36,5.36,0,0,1-.91-3.51v-9.36H400v-1.17h2.5v-2.69Z"/></clipPath><clipPath id="clip-path-32"><path class="cls-1" d="M412.27-3047.26c0,3.69,2.37,6.44,5.36,6.44s5.49-2.77,5.49-6.54c0-2.69-1.54-6.44-5.4-6.44S412.27-3050.42,412.27-3047.26Zm12.35-.18c0,5.53-3.79,7.86-7.07,7.86-3.8,0-6.76-3-6.76-7.6,0-5.06,3.32-7.83,7-7.83C421.87-3055,424.62-3052,424.62-3047.44Z"/></clipPath><clipPath id="clip-path-33"><path class="cls-1" d="M429.14-3051.12c0-1.36-.06-2.38-.12-3.53h1.35l.12,2.61h.07a5.09,5.09,0,0,1,4.76-2.95,4.42,4.42,0,0,1,4.23,3.22h.06a5.83,5.83,0,0,1,1.5-2,5.05,5.05,0,0,1,3.52-1.23c1.44,0,4.8.79,4.8,6.38v8.68H448v-8.54c0-3.32-1.29-5.29-3.84-5.29a4.23,4.23,0,0,0-3.87,2.92,4.15,4.15,0,0,0-.29,1.44v9.45h-1.43v-9.21c0-2.67-1.3-4.62-3.65-4.62a4.56,4.56,0,0,0-4.09,3.32,4,4,0,0,0-.24,1.42v9.09h-1.44Z"/></clipPath><clipPath id="clip-path-34"><path class="cls-1" d="M462.76-3047.8c-3.22-.11-7.48.4-7.48,3.92a2.83,2.83,0,0,0,3,3.08,4.41,4.41,0,0,0,4.36-2.95,2.94,2.94,0,0,0,.16-.89Zm1.44,4.37a25.21,25.21,0,0,0,.22,3.5H463.1l-.22-2.12h-.1a5.54,5.54,0,0,1-4.7,2.45,4,4,0,0,1-4.33-4.05c0-3.4,3-5.47,9-5.41v-.36c0-1.48-.29-4.4-3.79-4.36a6.36,6.36,0,0,0-3.69,1.11l-.46-1.07a8,8,0,0,1,4.29-1.25c4.28,0,5.07,3.2,5.07,5.83v5.73Z"/></clipPath><clipPath id="clip-path-35"><path class="cls-1" d="M471.79-3057.91v3.26H476v1.17h-4.21v9.58c0,1.87.59,3.08,2.15,3.08a5.36,5.36,0,0,0,1.68-.24l.18,1.13a4.86,4.86,0,0,1-2.06.37,3.08,3.08,0,0,1-2.52-1.07,5.42,5.42,0,0,1-.93-3.51v-9.36H467.8v-1.17h2.49v-2.69Z"/></clipPath><clipPath id="clip-path-36"><path class="cls-1" d="M489.45-3048.61c0-2.07-.83-5.19-4.39-5.19-3.26,0-4.68,2.92-4.92,5.19Zm-9.4,1.17c0,4.74,2.58,6.58,5.63,6.58a8.51,8.51,0,0,0,4.1-.83l.36,1.18a9.87,9.87,0,0,1-4.64,1c-4.23,0-6.88-3.1-6.88-7.43,0-4.93,2.83-8,6.64-8,4.82,0,5.75,4.53,5.75,6.66a3.7,3.7,0,0,1-.06.89h-10.9Z"/></clipPath><clipPath id="clip-path-37"><polygon class="cls-1" points="491.96 -3060.24 491.25 -3060.24 491.25 -3060.62 493.16 -3060.62 493.16 -3060.24 492.43 -3060.24 492.43 -3058.11 491.96 -3058.11 491.96 -3060.24"/></clipPath><clipPath id="clip-path-38"><path class="cls-1" d="M495.63-3059.12a9.29,9.29,0,0,1,0-1.06h0a8.32,8.32,0,0,1-.31,1l-.36,1.1h-.34l-.35-1.08c-.1-.32-.18-.66-.26-1,0,.33,0,.73,0,1.08l-.06,1h-.43l.16-2.51h.61l.33,1c.08.3.16.59.22.87h0c.06-.26.16-.59.24-.87l.35-1H496l.14,2.51h-.44Z"/></clipPath><clipPath id="clip-path-39"><path class="cls-1" d="M338.16-3047.09a8.41,8.41,0,0,1-8.4-8.41,8.41,8.41,0,0,1,8.4-8.41,8.42,8.42,0,0,1,8.41,8.41A8.42,8.42,0,0,1,338.16-3047.09Zm15.8-6.34v-4.14l-4.09-.68a11.89,11.89,0,0,0-1.5-3.61l2.41-3.36-2.92-2.92-3.36,2.41a11.89,11.89,0,0,0-3.61-1.5l-.68-4.07h-4.12l-.68,4.09a11.89,11.89,0,0,0-3.61,1.5l-3.36-2.41-2.92,2.9,2.41,3.36a11.89,11.89,0,0,0-1.5,3.61l-4.07.68v4.12l4.09.68a11.89,11.89,0,0,0,1.5,3.61l-2.43,3.38,2.92,2.92,3.36-2.41a11.89,11.89,0,0,0,3.61,1.5l.68,4.09h4.12l.68-4.09a11.89,11.89,0,0,0,3.61-1.5l3.36,2.41,2.92-2.92-2.41-3.36a11.89,11.89,0,0,0,1.5-3.61Z"/></clipPath><clipPath id="clip-path-40"><path class="cls-1" d="M342.29-3052.69l-.93-1.53a3.39,3.39,0,0,0,.24-1.28,3.46,3.46,0,0,0-.24-1.28l.93-1.53-1.31-1.32-1.54.93a3.46,3.46,0,0,0-1.28-.24,3.5,3.5,0,0,0-1.28.24l-1.53-.93-1.32,1.32.93,1.53a3.39,3.39,0,0,0-.24,1.28,3.46,3.46,0,0,0,.24,1.28l-.93,1.53,1.32,1.32,1.53-.93a3.43,3.43,0,0,0,1.28.24,3.46,3.46,0,0,0,1.28-.24l1.54.93Z"/></clipPath><clipPath id="clip-path-41"><path class="cls-1" d="M936.7-3058.7l6,6a1,1,0,0,1,0,1.4,1,1,0,0,1-1.4,0l-5.3-5.3-5.3,5.3a1,1,0,0,1-1.4,0,1,1,0,0,1-.3-.7,1,1,0,0,1,.3-.7l6-6A1,1,0,0,1,936.7-3058.7Z"/></clipPath><clipPath id="clip-path-42"><rect class="cls-1" x="290.5" y="-3065" width="20" height="20" rx="2"/></clipPath><clipPath id="clip-path-43"><path class="cls-1" d="M876.22-2968.5a.76.76,0,0,0-.75.75v3.75a.76.76,0,0,0,.75.75.76.76,0,0,0,.75-.75v-3.75A.76.76,0,0,0,876.22-2968.5Zm6,1.5a6,6,0,0,0-6-6,6,6,0,0,0-6,6,6,6,0,0,0,6,6A6,6,0,0,0,882.22-2967Zm1.5,0a7.52,7.52,0,0,1-7.5,7.5,7.53,7.53,0,0,1-7.5-7.5,7.53,7.53,0,0,1,7.5-7.5A7.52,7.52,0,0,1,883.72-2967Zm-6.75-3a.76.76,0,0,1-.75.75.76.76,0,0,1-.75-.75.76.76,0,0,1,.75-.75A.76.76,0,0,1,877-2970Z"/></clipPath><clipPath id="clip-path-44"><path class="cls-1" d="M603-2948.75h-6a.76.76,0,0,0-.75.75v12a.76.76,0,0,0,.75.75h12a.76.76,0,0,0,.75-.75v-6a.76.76,0,0,0-.75-.75.76.76,0,0,0-.75.75v5.25h-10.5v-10.5H603a.76.76,0,0,0,.75-.75A.76.76,0,0,0,603-2948.75Zm-.52,6.3,4.72-4.8H606a.76.76,0,0,1-.75-.75.76.76,0,0,1,.75-.75h3.23s0,0,.07,0,0,0,.08,0,0,0,.07,0l.08.08s0,0,0,0l.12.11a0,0,0,0,0,0,0s0,0,0,.08,0,0,0,.07v3.23a.76.76,0,0,1-.75.75.76.76,0,0,1-.75-.75v-1.16l-4.76,4.76a.74.74,0,0,1-.53.22.72.72,0,0,1-.52-.22A.72.72,0,0,1,602.45-2942.45Z"/></clipPath><clipPath id="clip-path-45"><rect class="cls-1" x="322.5" y="-2875" width="16" height="16" rx="2"/></clipPath><clipPath id="clip-path-46"><rect class="cls-1" x="322.5" y="-2814" width="16" height="16" rx="2"/></clipPath><clipPath id="clip-path-47"><rect class="cls-1" x="322.5" y="-2754" width="16" height="16" rx="2"/></clipPath><clipPath id="clip-path-48"><rect class="cls-1" x="322.5" y="-2694" width="16" height="16" rx="2"/></clipPath><clipPath id="clip-path-49"><path class="cls-1" d="M325.5-2635h10a4,4,0,0,1,4,4v10a4,4,0,0,1-4,4h-10a4,4,0,0,1-4-4v-10A4,4,0,0,1,325.5-2635Z"/></clipPath><clipPath id="clip-path-50"><rect class="cls-1" x="321.5" y="-2635" width="18" height="18" rx="2"/></clipPath><clipPath id="clip-path-51"><path class="cls-1" d="M325.5-2575h10a4,4,0,0,1,4,4v10a4,4,0,0,1-4,4h-10a4,4,0,0,1-4-4v-10A4,4,0,0,1,325.5-2575Z"/></clipPath><clipPath id="clip-path-52"><rect class="cls-1" x="321.5" y="-2575" width="18" height="18" rx="2"/></clipPath><clipPath id="clip-path-53"><rect class="cls-1" x="547.57" y="-2887" width="397" height="40" rx="4"/></clipPath><clipPath id="clip-path-54"><path class="cls-1" d="M919-2864.23l-4.5-4.5a.72.72,0,0,1-.22-.52.72.72,0,0,1,.22-.52.73.73,0,0,1,1.05,0l4,4,4-4a.73.73,0,0,1,1.05,0,.71.71,0,0,1,0,1l-4.5,4.5A.72.72,0,0,1,919-2864.23Z"/></clipPath><clipPath id="clip-path-55"><rect class="cls-1" x="547.57" y="-2826" width="397" height="40" rx="4"/></clipPath><clipPath id="clip-path-56"><path class="cls-1" d="M919-2803.23l-4.5-4.5a.72.72,0,0,1-.22-.52.72.72,0,0,1,.22-.52.73.73,0,0,1,1.05,0l4,4,4-4a.73.73,0,0,1,1.05,0,.71.71,0,0,1,0,1l-4.5,4.5A.72.72,0,0,1,919-2803.23Z"/></clipPath><clipPath id="clip-path-57"><rect class="cls-1" x="547.57" y="-2766" width="397" height="40" rx="4"/></clipPath><clipPath id="clip-path-58"><path class="cls-1" d="M919-2743.23l-4.5-4.5a.72.72,0,0,1-.22-.52.72.72,0,0,1,.22-.52.73.73,0,0,1,1.05,0l4,4,4-4a.73.73,0,0,1,1.05,0,.71.71,0,0,1,0,1l-4.5,4.5A.72.72,0,0,1,919-2743.23Z"/></clipPath><clipPath id="clip-path-59"><rect class="cls-1" x="547.57" y="-2706" width="397" height="40" rx="4"/></clipPath><clipPath id="clip-path-60"><path class="cls-1" d="M919-2683.23l-4.5-4.5a.72.72,0,0,1-.22-.52.72.72,0,0,1,.22-.52.73.73,0,0,1,1.05,0l4,4,4-4a.73.73,0,0,1,1.05,0,.71.71,0,0,1,0,1l-4.5,4.5A.72.72,0,0,1,919-2683.23Z"/></clipPath><clipPath id="clip-path-61"><rect class="cls-1" x="547.57" y="-2646" width="397" height="40" rx="4"/></clipPath><clipPath id="clip-path-62"><path class="cls-1" d="M919-2623.23l-4.5-4.5a.72.72,0,0,1-.22-.52.72.72,0,0,1,.22-.52.73.73,0,0,1,1.05,0l4,4,4-4a.73.73,0,0,1,1.05,0,.71.71,0,0,1,0,1l-4.5,4.5A.72.72,0,0,1,919-2623.23Z"/></clipPath><clipPath id="clip-path-63"><rect class="cls-1" x="547.57" y="-2586" width="397" height="40" rx="4"/></clipPath><clipPath id="clip-path-64"><path class="cls-1" d="M919-2563.23l-4.5-4.5a.72.72,0,0,1-.22-.52.72.72,0,0,1,.22-.52.73.73,0,0,1,1.05,0l4,4,4-4a.73.73,0,0,1,1.05,0,.71.71,0,0,1,0,1l-4.5,4.5A.72.72,0,0,1,919-2563.23Z"/></clipPath><clipPath id="clip-path-65"><rect class="cls-1" x="290.5" y="-2471" width="20" height="20" rx="2"/></clipPath><clipPath id="clip-path-66"><path class="cls-1" d="M369.45-2471.52a3.6,3.6,0,0,1-1.52.26,2.8,2.8,0,0,1-3-3,3,3,0,0,1,3.15-3.12,3.15,3.15,0,0,1,1.44.27l-.24.85a2.75,2.75,0,0,0-1.15-.23,2,2,0,0,0-2.07,2.19,1.94,1.94,0,0,0,2.07,2.13,2.68,2.68,0,0,0,1.17-.23Z"/></clipPath><clipPath id="clip-path-67"><path class="cls-1" d="M371-2473.49c0,.83.41,1.46,1.05,1.46s1.06-.61,1.06-1.46c0-.67-.31-1.44-1-1.44S371-2474.2,371-2473.49Zm3.22,0a2.11,2.11,0,0,1-2.19,2.27,2.07,2.07,0,0,1-2.14-2.21,2.12,2.12,0,0,1,2.21-2.27A2.06,2.06,0,0,1,374.25-2473.53Z"/></clipPath><clipPath id="clip-path-68"><path class="cls-1" d="M375.12-2474.36a12.45,12.45,0,0,0,0-1.28H376l.06.65h0a1.54,1.54,0,0,1,1.35-.73c.75,0,1.52.49,1.52,1.84v2.54h-1.07v-2.43c0-.61-.23-1.08-.81-1.08a.93.93,0,0,0-.85.63.94.94,0,0,0,0,.34v2.52h-1.1Z"/></clipPath><clipPath id="clip-path-69"><path class="cls-1" d="M380.15-2474.36a12.45,12.45,0,0,0,0-1.28h.95l.06.65h0a1.56,1.56,0,0,1,1.35-.73c.75,0,1.52.49,1.52,1.84v2.54h-1.07v-2.43c0-.61-.22-1.08-.81-1.08a.94.94,0,0,0-.85.63.94.94,0,0,0,0,.34v2.52h-1.09Z"/></clipPath><clipPath id="clip-path-70"><path class="cls-1" d="M387.82-2474c0-.4-.16-1.05-.89-1.05a1.05,1.05,0,0,0-1,1.05Zm-1.88.77a1.17,1.17,0,0,0,1.31,1.12,3,3,0,0,0,1.2-.2l.16.75a4.17,4.17,0,0,1-1.5.26,2,2,0,0,1-2.2-2.17,2.12,2.12,0,0,1,2.08-2.31,1.85,1.85,0,0,1,1.84,2.09,2.43,2.43,0,0,1,0,.46Z"/></clipPath><clipPath id="clip-path-71"><path class="cls-1" d="M392.84-2471.49a2.91,2.91,0,0,1-1.21.23,2.07,2.07,0,0,1-2.21-2.19,2.22,2.22,0,0,1,2.39-2.29,2.45,2.45,0,0,1,1.05.21l-.2.8a1.87,1.87,0,0,0-.81-.16,1.28,1.28,0,0,0-1.31,1.4,1.27,1.27,0,0,0,1.31,1.38,2.17,2.17,0,0,0,.85-.16Z"/></clipPath><clipPath id="clip-path-72"><path class="cls-1" d="M395-2476.73v1.09h1v.81h-1v1.89c0,.52.14.79.55.79a1.17,1.17,0,0,0,.42-.06l0,.83a2.37,2.37,0,0,1-.79.12,1.22,1.22,0,0,1-.93-.37,1.71,1.71,0,0,1-.32-1.19v-2h-.61v-.81H394v-.79Z"/></clipPath><clipPath id="clip-path-73"><path class="cls-1" d="M397.87-2471.36l-1.46-5.92h1.15l.57,2.7.39,2.06h0c.1-.63.26-1.33.42-2.06l.65-2.68h1.13l.59,2.72c.14.71.26,1.35.36,2h0c.1-.65.24-1.34.4-2l.61-2.68h1.09l-1.58,5.92h-1.15l-.61-2.78a16.07,16.07,0,0,1-.32-1.88h0c-.11.63-.23,1.19-.41,1.88l-.69,2.78h-1.17Z"/></clipPath><clipPath id="clip-path-74"><path class="cls-1" d="M404.31-2471.36v-4.28h1.09v4.28Zm1.15-5.47a.58.58,0,0,1-.61.59.56.56,0,0,1-.58-.59.58.58,0,0,1,.6-.59A.58.58,0,0,1,405.46-2476.83Z"/></clipPath><clipPath id="clip-path-75"><path class="cls-1" d="M406.49-2472.36a2.41,2.41,0,0,0,1.1.31c.46,0,.69-.2.69-.47s-.19-.44-.71-.63c-.83-.28-1.2-.75-1.18-1.25a1.44,1.44,0,0,1,1.62-1.34,2.43,2.43,0,0,1,1.14.26l-.2.77a2,2,0,0,0-.92-.24c-.38,0-.6.18-.6.45s.2.4.75.6c.77.29,1.13.67,1.13,1.32s-.61,1.34-1.74,1.34a2.77,2.77,0,0,1-1.3-.31Z"/></clipPath><clipPath id="clip-path-76"><path class="cls-1" d="M412.85-2474c0-.4-.16-1.05-.89-1.05a1.05,1.05,0,0,0-1,1.05Zm-1.88.77a1.17,1.17,0,0,0,1.32,1.12,3,3,0,0,0,1.19-.2l.16.75a4.16,4.16,0,0,1-1.49.26,2,2,0,0,1-2.21-2.17,2.13,2.13,0,0,1,2.08-2.31,1.86,1.86,0,0,1,1.85,2.09,2.43,2.43,0,0,1,0,.46Z"/></clipPath><clipPath id="clip-path-77"><path class="cls-1" d="M376.68-2454.39l-2.51-6.91c-.49-1.44-.77-2.49-1.07-3.64H373c-.31,1.19-.65,2.26-1.08,3.58l-2.55,7Zm-7.73,1.21-2.56,7.25h-1.5l7.5-20.69h1.42l7.45,20.69h-1.5l-2.61-7.25Z"/></clipPath><clipPath id="clip-path-78"><path class="cls-1" d="M396.23-2449.51c0,1.3.06,2.45.12,3.58H395l-.1-2.61h-.06a5.7,5.7,0,0,1-5.06,3c-1.89,0-5-.93-5-6.5v-8.59h1.44v8.28c0,3.2,1,5.49,3.93,5.49a4.77,4.77,0,0,0,4.33-3,4.86,4.86,0,0,0,.31-1.62v-9.17h1.44v11.16Z"/></clipPath><clipPath id="clip-path-79"><path class="cls-1" d="M404-2463.91v3.26h4.22v1.17H404v9.58c0,1.87.59,3.08,2.15,3.08a5.31,5.31,0,0,0,1.68-.24l.18,1.13a4.86,4.86,0,0,1-2.06.37,3.05,3.05,0,0,1-2.51-1.07,5.36,5.36,0,0,1-.91-3.51v-9.36H400v-1.17h2.5v-2.69Z"/></clipPath><clipPath id="clip-path-80"><path class="cls-1" d="M412.27-2453.26c0,3.69,2.37,6.44,5.36,6.44s5.49-2.77,5.49-6.54c0-2.69-1.54-6.44-5.4-6.44S412.27-2456.42,412.27-2453.26Zm12.35-.18c0,5.53-3.79,7.86-7.07,7.86-3.8,0-6.76-3-6.76-7.6,0-5.06,3.32-7.83,7-7.83C421.87-2461,424.62-2458,424.62-2453.44Z"/></clipPath><clipPath id="clip-path-81"><path class="cls-1" d="M429.14-2457.12c0-1.36-.06-2.38-.12-3.53h1.35l.12,2.61h.07a5.09,5.09,0,0,1,4.76-2.95,4.42,4.42,0,0,1,4.23,3.22h.06a5.83,5.83,0,0,1,1.5-2,5.05,5.05,0,0,1,3.52-1.23c1.44,0,4.8.79,4.8,6.38v8.68H448v-8.54c0-3.32-1.29-5.29-3.84-5.29a4.23,4.23,0,0,0-3.87,2.92,4.15,4.15,0,0,0-.29,1.44v9.45h-1.43v-9.21c0-2.67-1.3-4.62-3.65-4.62a4.56,4.56,0,0,0-4.09,3.32,4,4,0,0,0-.24,1.42v9.09h-1.44Z"/></clipPath><clipPath id="clip-path-82"><path class="cls-1" d="M462.76-2453.8c-3.22-.11-7.48.4-7.48,3.92a2.83,2.83,0,0,0,3,3.08,4.41,4.41,0,0,0,4.36-2.95,2.94,2.94,0,0,0,.16-.89Zm1.44,4.37a25.21,25.21,0,0,0,.22,3.5H463.1l-.22-2.12h-.1a5.54,5.54,0,0,1-4.7,2.45,4,4,0,0,1-4.33-4.05c0-3.4,3-5.47,9-5.41v-.36c0-1.48-.29-4.4-3.79-4.36a6.36,6.36,0,0,0-3.69,1.11l-.46-1.07a8,8,0,0,1,4.29-1.25c4.28,0,5.07,3.2,5.07,5.83v5.73Z"/></clipPath><clipPath id="clip-path-83"><path class="cls-1" d="M471.79-2463.91v3.26H476v1.17h-4.21v9.58c0,1.87.59,3.08,2.15,3.08a5.36,5.36,0,0,0,1.68-.24l.18,1.13a4.86,4.86,0,0,1-2.06.37,3.08,3.08,0,0,1-2.52-1.07,5.42,5.42,0,0,1-.93-3.51v-9.36H467.8v-1.17h2.49v-2.69Z"/></clipPath><clipPath id="clip-path-84"><path class="cls-1" d="M489.45-2454.61c0-2.07-.83-5.19-4.39-5.19-3.26,0-4.68,2.92-4.92,5.19Zm-9.4,1.17c0,4.74,2.58,6.58,5.63,6.58a8.51,8.51,0,0,0,4.1-.83l.36,1.18a9.87,9.87,0,0,1-4.64,1c-4.23,0-6.88-3.1-6.88-7.43,0-4.93,2.83-8,6.64-8,4.82,0,5.75,4.53,5.75,6.66a3.7,3.7,0,0,1-.06.89h-10.9Z"/></clipPath><clipPath id="clip-path-85"><polygon class="cls-1" points="491.96 -2466.24 491.25 -2466.24 491.25 -2466.62 493.16 -2466.62 493.16 -2466.24 492.43 -2466.24 492.43 -2464.11 491.96 -2464.11 491.96 -2466.24"/></clipPath><clipPath id="clip-path-86"><path class="cls-1" d="M495.63-2465.12a9.29,9.29,0,0,1,0-1.06h0a8.32,8.32,0,0,1-.31,1l-.36,1.1h-.34l-.35-1.08c-.1-.32-.18-.66-.26-1,0,.33,0,.73,0,1.08l-.06,1h-.43l.16-2.51h.61l.33,1c.08.3.16.59.22.87h0c.06-.26.16-.59.24-.87l.35-1H496l.14,2.51h-.44Z"/></clipPath><clipPath id="clip-path-87"><path class="cls-1" d="M338.16-2453.09a8.41,8.41,0,0,1-8.4-8.41,8.41,8.41,0,0,1,8.4-8.41,8.42,8.42,0,0,1,8.41,8.41A8.42,8.42,0,0,1,338.16-2453.09Zm15.8-6.34v-4.14l-4.09-.68a11.89,11.89,0,0,0-1.5-3.61l2.41-3.36-2.92-2.92-3.36,2.41a11.89,11.89,0,0,0-3.61-1.5l-.68-4.07h-4.12l-.68,4.09a11.89,11.89,0,0,0-3.61,1.5l-3.36-2.41-2.92,2.9,2.41,3.36a11.89,11.89,0,0,0-1.5,3.61l-4.07.68v4.12l4.09.68a11.89,11.89,0,0,0,1.5,3.61l-2.43,3.38,2.92,2.92,3.36-2.41a11.89,11.89,0,0,0,3.61,1.5l.68,4.09h4.12l.68-4.09a11.89,11.89,0,0,0,3.61-1.5l3.36,2.41,2.92-2.92-2.41-3.36a11.89,11.89,0,0,0,1.5-3.61Z"/></clipPath><clipPath id="clip-path-88"><path class="cls-1" d="M342.29-2458.69l-.93-1.53a3.39,3.39,0,0,0,.24-1.28,3.46,3.46,0,0,0-.24-1.28l.93-1.53-1.31-1.32-1.54.93a3.46,3.46,0,0,0-1.28-.24,3.5,3.5,0,0,0-1.28.24l-1.53-.93-1.32,1.32.93,1.53a3.39,3.39,0,0,0-.24,1.28,3.46,3.46,0,0,0,.24,1.28l-.93,1.53,1.32,1.32,1.53-.93a3.43,3.43,0,0,0,1.28.24,3.46,3.46,0,0,0,1.28-.24l1.54.93Z"/></clipPath><clipPath id="clip-path-89"><path class="cls-1" d="M935.3-2457.3l-6-6a1,1,0,0,1-.3-.7,1,1,0,0,1,.3-.7,1,1,0,0,1,1.4,0l5.3,5.3,5.3-5.3a1,1,0,0,1,1.4,0,1,1,0,0,1,0,1.4l-6,6A1,1,0,0,1,935.3-2457.3Z"/></clipPath><clipPath id="clip-path-90"><polygon class="cls-1" points="328.71 -2371.25 328.71 -2371.25 325.89 -2373.88 323.61 -2376 322.67 -2375.12 320.79 -2373.37 334.11 -2360.98 327.48 -2354.8 320.79 -2348.58 322.92 -2346.64 323.61 -2346 339.75 -2360.98 328.71 -2371.25"/></clipPath><clipPath id="clip-path-91"><polygon class="cls-1" points="329.85 -2373.88 332.67 -2371.25 347.68 -2371.25 347.68 -2352.54 347.68 -2347.01 350.5 -2347.01 350.5 -2373.88 329.85 -2373.88"/></clipPath><clipPath id="clip-path-92"><polygon class="cls-1" points="332.92 -2350.7 328.71 -2347.01 344.86 -2347.01 344.86 -2350.7 332.92 -2350.7"/></clipPath><clipPath id="clip-path-93"><path class="cls-1" d="M364.37-2375.73a2.84,2.84,0,0,1-1.38.26,2.54,2.54,0,0,1-2.73-2.69,2.75,2.75,0,0,1,2.88-2.8,2.8,2.8,0,0,1,1.27.25l-.22.77a2.4,2.4,0,0,0-1-.22,1.79,1.79,0,0,0-1.89,2,1.71,1.71,0,0,0,1.86,1.93,2.42,2.42,0,0,0,1.09-.22Z"/></clipPath><clipPath id="clip-path-94"><path class="cls-1" d="M368.7-2377.51a1.93,1.93,0,0,1-.55,1.46,1.93,1.93,0,0,1-1.45.58,1.88,1.88,0,0,1-1.4-.55,1.87,1.87,0,0,1-.53-1.42,1.92,1.92,0,0,1,.54-1.47,1.9,1.9,0,0,1,1.46-.56,1.85,1.85,0,0,1,1.4.55A1.86,1.86,0,0,1,368.7-2377.51Zm-2.91,0c0,.73.36,1.31.95,1.31s.94-.55.94-1.31-.25-1.31-.94-1.31S365.79-2378.09,365.79-2377.47Z"/></clipPath><clipPath id="clip-path-95"><path class="cls-1" d="M369.46-2378.24v-1.16h.84v.58h0a1.38,1.38,0,0,1,1.23-.65c.66,0,1.35.44,1.35,1.64v2.29h-1v-2.19c0-.54-.19-1-.73-1a.87.87,0,0,0-.76.58c0,.08,0,.22,0,.33v2.26h-1v-2.7Z"/></clipPath><clipPath id="clip-path-96"><path class="cls-1" d="M374-2378.24v-1.16h.84v.58h0a1.38,1.38,0,0,1,1.23-.65c.66,0,1.35.44,1.35,1.64v2.29h-1v-2.19c0-.54-.19-1-.73-1a.89.89,0,0,0-.77.58c0,.08,0,.22,0,.33v2.26h-1v-2.7Z"/></clipPath><clipPath id="clip-path-97"><path class="cls-1" d="M379.17-2377.22a1.06,1.06,0,0,0,1.2,1,2.75,2.75,0,0,0,1.06-.18l.14.65a3.4,3.4,0,0,1-1.34.26,1.81,1.81,0,0,1-2-1.93,1.86,1.86,0,0,1,1.86-2.07,1.7,1.7,0,0,1,1.67,1.85,1.07,1.07,0,0,1,0,.4Zm1.71-.65c0-.37-.14-1-.8-1s-.83.55-.91,1Z"/></clipPath><clipPath id="clip-path-98"><path class="cls-1" d="M385.39-2375.65a3.37,3.37,0,0,1-1.09.18,1.84,1.84,0,0,1-1.44-.53,1.79,1.79,0,0,1-.52-1.44,2,2,0,0,1,2.14-2,2.38,2.38,0,0,1,.91.18l-.14.73a2.07,2.07,0,0,0-.77-.15,1.15,1.15,0,0,0-.85.37,1.16,1.16,0,0,0-.31.87,1.15,1.15,0,0,0,.3.88,1.08,1.08,0,0,0,.86.35,1.88,1.88,0,0,0,.77-.14Z"/></clipPath><clipPath id="clip-path-99"><path class="cls-1" d="M387.35-2380.38v1h.91v.73h-.91v1.71c0,.47.11.69.48.69h.4v.73a1.63,1.63,0,0,1-.69.1,1,1,0,0,1-.84-.32,1.44,1.44,0,0,1-.29-1.06v-1.82h-.58v-.72h.58v-.73Z"/></clipPath><clipPath id="clip-path-100"><path class="cls-1" d="M389.9-2375.54l-1.31-5.31h1.06l.5,2.4c.11.65.26,1.31.33,1.85h0c.07-.54.22-1.2.36-1.85l.58-2.4h1l.55,2.43c.11.62.22,1.2.29,1.78h0c.08-.58.22-1.16.37-1.81l.54-2.4h1l-1.42,5.31h-1.06l-.54-2.51a13.4,13.4,0,0,1-.29-1.68c-.11.55-.22,1.06-.37,1.68l-.62,2.51Z"/></clipPath><clipPath id="clip-path-101"><path class="cls-1" d="M396.86-2380.45a.48.48,0,0,1-.17.39.65.65,0,0,1-.46.12.63.63,0,0,1-.44-.14.51.51,0,0,1-.18-.37.59.59,0,0,1,.62-.55.63.63,0,0,1,.46.15A.48.48,0,0,1,396.86-2380.45Zm-1.17,4.91v-3.86h1.13v3.86Z"/></clipPath><clipPath id="clip-path-102"><path class="cls-1" d="M397.65-2376.45a2.19,2.19,0,0,0,1,.29c.43,0,.62-.18.62-.44s-.15-.4-.62-.54-1.06-.69-1.06-1.13a1.44,1.44,0,0,1,1.46-1.2,2.26,2.26,0,0,1,1,.22l-.19.69a1.61,1.61,0,0,0-.83-.22c-.33,0-.55.14-.55.4s.18.36.69.55a1.35,1.35,0,0,1,1,1.16c0,.58-.54,1.2-1.56,1.2a2.63,2.63,0,0,1-1.17-.26Z"/></clipPath><clipPath id="clip-path-103"><path class="cls-1" d="M401.68-2377.22a1,1,0,0,0,1.17,1,2.9,2.9,0,0,0,1.09-.18l.14.65a3.4,3.4,0,0,1-1.34.26,1.82,1.82,0,0,1-2-1.93,1.86,1.86,0,0,1,1.89-2.07,1.65,1.65,0,0,1,1.63,1.85v.4Zm1.67-.65a.78.78,0,0,0-.17-.66.82.82,0,0,0-.63-.29,1,1,0,0,0-.87,1Z"/></clipPath><clipPath id="clip-path-104"><path class="cls-1" d="M374.23-2353.14a11.29,11.29,0,0,1-5,.94c-4.43,0-8.69-2.83-8.69-9.38,0-5.42,3.53-9.56,9.31-9.56a9.23,9.23,0,0,1,4.25.8l-.43,1.09a8.41,8.41,0,0,0-3.82-.8c-4.95,0-8,3.23-8,8.51s2.83,8.21,7.74,8.21a9.72,9.72,0,0,0,4.15-.83Z"/></clipPath><clipPath id="clip-path-105"><path class="cls-1" d="M378.19-2359c0,3.27,2.07,5.71,4.76,5.71s4.88-2.44,4.88-5.78c0-2.4-1.35-5.75-4.8-5.75S378.19-2361.8,378.19-2359Zm10.95-.18c0,4.91-3.35,7-6.26,7a6.41,6.41,0,0,1-6-6.73c0-4.1,2.95-6.94,6.18-6.94S389.14-2363.18,389.14-2359.18Z"/></clipPath><clipPath id="clip-path-106"><path class="cls-1" d="M393.28-2362.45c0-1.2,0-2.08-.11-3.13h1.2l.11,2.33h.07a4.53,4.53,0,0,1,4.22-2.62,3.66,3.66,0,0,1,3.75,2.87h.07a4.71,4.71,0,0,1,1.35-1.78,4.55,4.55,0,0,1,3.12-1.09c1.28,0,4.26.73,4.26,5.67v7.71h-1.27V-2360c0-2.95-1.17-4.69-3.42-4.69a3.82,3.82,0,0,0-3.46,2.58,4.57,4.57,0,0,0-.22,1.27v8.4h-1.3v-8.18c0-2.36-1.13-4.07-3.24-4.07a3.73,3.73,0,0,0-3.64,2.94,4.37,4.37,0,0,0-.22,1.24v8.07h-1.27Z"/></clipPath><clipPath id="clip-path-107"><path class="cls-1" d="M416.45-2362.45c0-1.2-.08-2.08-.11-3.13h1.2l.11,2.33h0a4.58,4.58,0,0,1,4.26-2.62,3.62,3.62,0,0,1,3.74,2.87h.07a5.12,5.12,0,0,1,1.31-1.78,4.58,4.58,0,0,1,3.17-1.09c1.27,0,4.25.73,4.25,5.67v7.71h-1.31V-2360c0-2.95-1.12-4.69-3.38-4.69a3.81,3.81,0,0,0-3.45,2.58,3.43,3.43,0,0,0-.26,1.27v8.4h-1.27v-8.18c0-2.36-1.13-4.07-3.24-4.07s-3.12,1.41-3.63,2.94a3.09,3.09,0,0,0-.22,1.24v8.07h-1.27Z"/></clipPath><clipPath id="clip-path-108"><path class="cls-1" d="M446.45-2359.51c-2.88-.07-6.62.37-6.62,3.49a2.49,2.49,0,0,0,2.62,2.73,3.89,3.89,0,0,0,3.85-2.62,3.3,3.3,0,0,0,.15-.76Zm1.27,3.93a29.1,29.1,0,0,0,.18,3.09h-1.16l-.19-1.89h-.07a4.93,4.93,0,0,1-4.18,2.18,3.57,3.57,0,0,1-3.85-3.6c0-3,2.69-4.84,8-4.8v-.33c0-1.31-.26-3.89-3.35-3.85a5.43,5.43,0,0,0-3.27,1l-.44-.94a7,7,0,0,1,3.82-1.13c3.82,0,4.51,2.84,4.51,5.16Z"/></clipPath><clipPath id="clip-path-109"><path class="cls-1" d="M452.81-2362.45c0-1.2-.07-2.08-.11-3.13h1.2l.11,2.4h0a4.93,4.93,0,0,1,4.5-2.69c1.24,0,4.55.62,4.55,5.53v7.85h-1.27v-7.75c0-2.36-.95-4.5-3.64-4.5a4.19,4.19,0,0,0-3.93,3,3.8,3.8,0,0,0-.18,1.16v8.11h-1.27Z"/></clipPath><clipPath id="clip-path-110"><path class="cls-1" d="M477.35-2360.38a6,6,0,0,0-.1-1.2,4.31,4.31,0,0,0-4.15-3.24c-2.84,0-4.65,2.48-4.65,5.89s1.49,5.64,4.58,5.64a4.34,4.34,0,0,0,4.22-3.38,5,5,0,0,0,.1-1.09Zm1.31-11.45v16.29c0,1,0,2.14.11,3.05h-1.2l-.07-2.47h0a5,5,0,0,1-4.69,2.76c-3.2,0-5.63-2.69-5.63-6.58s2.69-7.09,5.89-7.09a4.72,4.72,0,0,1,4.29,2.29h0v-8.25Z"/></clipPath><clipPath id="clip-path-111"><path class="cls-1" d="M483.28-2365.11h.18c.22,0,.44-.07.44-.25s-.11-.26-.4-.26h-.22Zm0,.87H483v-1.56l.55-.07a.84.84,0,0,1,.51.14.47.47,0,0,1,.14.33.42.42,0,0,1-.29.37c.11,0,.18.18.25.36a1.08,1.08,0,0,0,.11.4H484c-.07,0-.11-.18-.14-.4s-.15-.26-.37-.26h-.18Zm.26-2.07a1.24,1.24,0,0,0-1.2,1.24,1.22,1.22,0,0,0,.35.9,1.22,1.22,0,0,0,.88.37,1.18,1.18,0,0,0,.84-.38,1.18,1.18,0,0,0,.33-.85,1.23,1.23,0,0,0-.34-.89A1.25,1.25,0,0,0,483.54-2366.31Zm0-.25a1.5,1.5,0,0,1,1.08.42,1.49,1.49,0,0,1,.45,1.07,1.56,1.56,0,0,1-1.55,1.32,1.56,1.56,0,0,1-1.54-1.32,1.49,1.49,0,0,1,.45-1.07,1.49,1.49,0,0,1,1.08-.42Z"/></clipPath><clipPath id="clip-path-112"><path class="cls-1" d="M414.7-2342.74V-2345h-.36v-.36h.36v-.15a1.25,1.25,0,0,1,.29-.91,1,1,0,0,1,.66-.25l.4.07-.08.36h-.29c-.4,0-.51.37-.51.77v.14h.62v.37h-.62v2.25Z"/></clipPath><clipPath id="clip-path-113"><path class="cls-1" d="M416.3-2344c0,.58.33,1,.8,1s.8-.44.8-1-.22-1-.8-1S416.3-2344.56,416.3-2344Zm2.11,0a1.31,1.31,0,0,1-.36,1,1.3,1.3,0,0,1-1,.41,1.26,1.26,0,0,1-.91-.42,1.27,1.27,0,0,1-.32-1,1.28,1.28,0,0,1,.34-1,1.3,1.3,0,0,1,1-.4,1.28,1.28,0,0,1,.92.4A1.29,1.29,0,0,1,418.41-2344.09Z"/></clipPath><clipPath id="clip-path-114"><path class="cls-1" d="M418.85-2344.56a7,7,0,0,0,0-.8h.44v.51h0a.77.77,0,0,1,.73-.59h.14v.48H420a.68.68,0,0,0-.65.62v1.63h-.47Z"/></clipPath><clipPath id="clip-path-115"><path class="cls-1" d="M420.48-2344.67a4,4,0,0,0,0-.69h.43v.4h0a.9.9,0,0,1,.83-.48.78.78,0,0,1,.73.51h0a.89.89,0,0,1,.29-.32.94.94,0,0,1,.58-.19c.33,0,.87.22.87,1.13v1.57h-.47v-1.5c0-.5-.18-.79-.58-.79a.61.61,0,0,0-.58.43s0,.15,0,.22v1.64h-.47v-1.57c0-.43-.18-.72-.55-.72a.61.61,0,0,0-.58.47.54.54,0,0,0,0,.22v1.6h-.47Z"/></clipPath><clipPath id="clip-path-116"><path class="cls-1" d="M426.55-2344.31a.73.73,0,0,0-.17-.55.74.74,0,0,0-.52-.25c-.47,0-.69.47-.72.8Zm-1.41.33a.8.8,0,0,0,.24.67.86.86,0,0,0,.67.24,2,2,0,0,0,.72-.11l.08.33a2.43,2.43,0,0,1-.88.18,1.23,1.23,0,0,1-1-.37,1.27,1.27,0,0,1-.35-1,1.28,1.28,0,0,1,1.24-1.42,1.19,1.19,0,0,1,1.09,1.24v.22Z"/></clipPath><clipPath id="clip-path-117"><path class="cls-1" d="M427.43-2344.56v-.8h.4v.51a.77.77,0,0,1,.72-.59h.15v.48h-.18c-.33,0-.55.25-.62.62a.52.52,0,0,0,0,.21v1.42h-.47Z"/></clipPath><clipPath id="clip-path-118"><path class="cls-1" d="M430.37-2345.36l.58,1.53c.08.18.11.39.19.54,0-.15.11-.36.14-.54l.55-1.53h.51l-.73,1.85a4.06,4.06,0,0,1-.91,1.68,1.33,1.33,0,0,1-.58.29l-.11-.4.4-.22a1.45,1.45,0,0,0,.4-.55.15.15,0,0,0,0-.11.33.33,0,0,0,0-.14l-.95-2.4Z"/></clipPath><clipPath id="clip-path-119"><path class="cls-1" d="M435-2344.09c-.54,0-1.13.07-1.13.58a.45.45,0,0,0,.13.35.45.45,0,0,0,.35.13.66.66,0,0,0,.61-.44.2.2,0,0,0,0-.15Zm.47.73a4.4,4.4,0,0,0,0,.62h-.44v-.33h0a1,1,0,0,1-.8.4.79.79,0,0,1-.57-.21.79.79,0,0,1-.23-.56c0-.65.58-1,1.6-1v-.07c0-.22-.08-.58-.62-.58a1.39,1.39,0,0,0-.69.18l-.11-.33a1.66,1.66,0,0,1,.87-.22c.8,0,1,.55,1,1.1Z"/></clipPath><clipPath id="clip-path-120"><path class="cls-1" d="M439.65-2342.85a2.8,2.8,0,0,1-1,.18,1.74,1.74,0,0,1-1.81-1.89,1.82,1.82,0,0,1,.54-1.39,1.87,1.87,0,0,1,1.38-.54,1.79,1.79,0,0,1,.88.18l-.11.4a1.59,1.59,0,0,0-.77-.18,1.38,1.38,0,0,0-1.42,1.53,1.31,1.31,0,0,0,1.42,1.49,1.71,1.71,0,0,0,.77-.18Z"/></clipPath><clipPath id="clip-path-121"><path class="cls-1" d="M440.3-2344c0,.58.33,1,.8,1s.8-.44.8-1-.22-1-.8-1S440.3-2344.56,440.3-2344Zm2.07,0a1.22,1.22,0,0,1-.33,1,1.29,1.29,0,0,1-1,.41,1.38,1.38,0,0,1-1.36-1.4,1.39,1.39,0,0,1,1.4-1.37,1.24,1.24,0,0,1,.94.39A1.26,1.26,0,0,1,442.37-2344.09Z"/></clipPath><clipPath id="clip-path-122"><path class="cls-1" d="M442.81-2344.67v-.69h.44v.43h0a1,1,0,0,1,.87-.51c.37,0,.91.22.91,1.13v1.57h-.47v-1.53c0-.4-.14-.76-.62-.76a.65.65,0,0,0-.62.47.53.53,0,0,0,0,.22v1.6h-.51Z"/></clipPath><clipPath id="clip-path-123"><path class="cls-1" d="M446.23-2346v.66h.69v.36h-.69v1.42c0,.33.11.51.36.51h.29v.36l-.43.07a.58.58,0,0,1-.51-.21,1,1,0,0,1-.19-.69V-2345h-.43v-.37h.43v-.5Z"/></clipPath><clipPath id="clip-path-124"><path class="cls-1" d="M447.4-2342.74v-2.62h1v2.62Zm1.08-3.39c.08.19-.23.3-.62.3a1,1,0,0,1-.46-.08c-.12-.05-.18-.14-.15-.22s.27-.29.61-.29a1,1,0,0,1,.47.08C448.45-2346.29,448.51-2346.21,448.48-2346.13Z"/></clipPath><clipPath id="clip-path-125"><path class="cls-1" d="M448.41-2344.67v-.69h.4v.43a1,1,0,0,1,.87-.51c.4,0,.95.22.95,1.13v1.57h-.48v-1.53c0-.4-.14-.76-.61-.76a.71.71,0,0,0-.66.47v1.82h-.51Z"/></clipPath><clipPath id="clip-path-126"><path class="cls-1" d="M453.5-2343.47v.73h-.4v-.44a1,1,0,0,1-.87.51c-.44,0-.91-.26-.91-1.16v-1.53h.47v1.45c0,.47.15.84.58.84a.66.66,0,0,0,.62-.44.55.55,0,0,0,.07-.25v-1.6h.48Z"/></clipPath><clipPath id="clip-path-127"><path class="cls-1" d="M456.34-2343.47a4.51,4.51,0,0,0,0,.73h-.43v-.44a1.05,1.05,0,0,1-.88.51c-.43,0-.91-.26-.91-1.16v-1.53h.48v1.45c0,.47.14.84.58.84a.74.74,0,0,0,.65-.44c0-.07,0-.18,0-.25v-1.6h.47Z"/></clipPath><clipPath id="clip-path-128"><path class="cls-1" d="M457-2344.67v-.69h.4v.4a.92.92,0,0,1,.84-.48.81.81,0,0,1,.76.51.84.84,0,0,1,.3-.32.92.92,0,0,1,.58-.19c.36,0,.87.22.87,1.13v1.57h-.47v-1.5c0-.5-.18-.79-.58-.79a.57.57,0,0,0-.55.43s0,.15,0,.22v1.64h-.47v-1.57c0-.43-.18-.72-.54-.72a.6.6,0,0,0-.62.47c0,.07,0,.14,0,.22v1.6H457Z"/></clipPath><clipPath id="clip-path-129"><path class="cls-1" d="M462.26-2343.22a1.73,1.73,0,0,0,.66.19c.33,0,.51-.19.51-.41s-.15-.36-.51-.47a.91.91,0,0,1-.69-.76.79.79,0,0,1,.28-.58.81.81,0,0,1,.63-.19,1.47,1.47,0,0,1,.65.15l-.11.36a.93.93,0,0,0-.54-.14c-.29,0-.44.14-.44.36s.15.29.51.44a.92.92,0,0,1,.69.8.88.88,0,0,1-1,.8,1.71,1.71,0,0,1-.77-.18Z"/></clipPath><clipPath id="clip-path-130"><path class="cls-1" d="M464.63-2344c0,.58.32,1,.8,1s.8-.44.8-1-.22-1-.77-1A.92.92,0,0,0,464.63-2344Zm2.11,0a1.31,1.31,0,0,1-.35,1,1.31,1.31,0,0,1-1,.42,1.38,1.38,0,0,1-1.37-1.4,1.39,1.39,0,0,1,1.4-1.37,1.22,1.22,0,0,1,.94.39A1.23,1.23,0,0,1,466.74-2344.09Z"/></clipPath><clipPath id="clip-path-131"><path class="cls-1" d="M470.52-2343.47v.73h-.4v-.44a1.06,1.06,0,0,1-.87.51c-.44,0-.95-.26-.95-1.16v-1.53h.51v1.45c0,.47.14.84.58.84a.66.66,0,0,0,.62-.44.73.73,0,0,0,0-.25v-1.6h.5Z"/></clipPath><clipPath id="clip-path-132"><path class="cls-1" d="M471.72-2346v.66h.69v.36h-.69v1.42c0,.33.11.51.36.51h.29v.36l-.43.07a.58.58,0,0,1-.51-.21.91.91,0,0,1-.18-.69V-2345h-.4v-.37h.4v-.5Z"/></clipPath><clipPath id="clip-path-133"><path class="cls-1" d="M472.81-2342.74v-2.62h1v2.62Zm1.17-3.39c0,.16-.28.3-.62.3s-.62-.14-.62-.3.27-.29.62-.29a1,1,0,0,1,.47.08C474-2346.29,474-2346.21,474-2346.13Z"/></clipPath><clipPath id="clip-path-134"><path class="cls-1" d="M474.19-2344c0,.58.33,1,.8,1s.8-.44.8-1-.22-1-.8-1S474.19-2344.56,474.19-2344Zm2.11,0a1.34,1.34,0,0,1-.35,1,1.34,1.34,0,0,1-1,.41,1.38,1.38,0,0,1-1.41-1.35,1.37,1.37,0,0,1,1.34-1.41A1.38,1.38,0,0,1,476.3-2344.09Z"/></clipPath><clipPath id="clip-path-135"><path class="cls-1" d="M476.74-2344.67a5.32,5.32,0,0,0,0-.69h.44v.43a.94.94,0,0,1,.87-.51c.36,0,.91.22.91,1.13v1.57h-.47v-1.53c0-.4-.15-.76-.62-.76a.64.64,0,0,0-.62.47.54.54,0,0,0,0,.22v1.6h-.47Z"/></clipPath><clipPath id="clip-path-136"><path class="cls-1" d="M936.7-2364.7l6,6a1,1,0,0,1,0,1.4,1,1,0,0,1-1.4,0l-5.3-5.3-5.3,5.3a1,1,0,0,1-1.4,0,1,1,0,0,1-.3-.7,1,1,0,0,1,.3-.7l6-6A1,1,0,0,1,936.7-2364.7Z"/></clipPath><clipPath id="clip-path-137"><rect class="cls-1" x="290.5" y="-2371" width="20" height="20" rx="2"/></clipPath><clipPath id="clip-path-138"><path class="cls-1" d="M874.75-2274.5a.76.76,0,0,0-.75.75v3.75a.76.76,0,0,0,.75.75.76.76,0,0,0,.75-.75v-3.75A.76.76,0,0,0,874.75-2274.5Zm6,1.5a6,6,0,0,0-6-6,6,6,0,0,0-6,6,6,6,0,0,0,6,6A6,6,0,0,0,880.75-2273Zm1.5,0a7.52,7.52,0,0,1-7.5,7.5,7.52,7.52,0,0,1-7.5-7.5,7.52,7.52,0,0,1,7.5-7.5A7.52,7.52,0,0,1,882.25-2273Zm-6.75-3a.76.76,0,0,1-.75.75.76.76,0,0,1-.75-.75.76.76,0,0,1,.75-.75A.76.76,0,0,1,875.5-2276Z"/></clipPath><clipPath id="clip-path-139"><rect class="cls-1" x="322.5" y="-2181" width="16" height="16" rx="2"/></clipPath><clipPath id="clip-path-140"><rect class="cls-1" x="322.5" y="-2121" width="16" height="16" rx="2"/></clipPath><clipPath id="clip-path-141"><rect class="cls-1" x="322.5" y="-2061" width="16" height="16" rx="2"/></clipPath><clipPath id="clip-path-142"><rect class="cls-1" x="322.5" y="-2001" width="16" height="16" rx="2"/></clipPath><clipPath id="clip-path-143"><path class="cls-1" d="M325.5-1942h10a4,4,0,0,1,4,4v10a4,4,0,0,1-4,4h-10a4,4,0,0,1-4-4v-10A4,4,0,0,1,325.5-1942Z"/></clipPath><clipPath id="clip-path-144"><rect class="cls-1" x="321.5" y="-1942" width="18" height="18" rx="2"/></clipPath><clipPath id="clip-path-145"><path class="cls-1" d="M325.5-1882h10a4,4,0,0,1,4,4v10a4,4,0,0,1-4,4h-10a4,4,0,0,1-4-4v-10A4,4,0,0,1,325.5-1882Z"/></clipPath><clipPath id="clip-path-146"><rect class="cls-1" x="321.5" y="-1882" width="18" height="18" rx="2"/></clipPath><clipPath id="clip-path-147"><rect class="cls-1" x="322.5" y="-1821" width="16" height="16" rx="2"/></clipPath><clipPath id="clip-path-148"><path class="cls-1" d="M325.5-1762h10a4,4,0,0,1,4,4v10a4,4,0,0,1-4,4h-10a4,4,0,0,1-4-4v-10A4,4,0,0,1,325.5-1762Z"/></clipPath><clipPath id="clip-path-149"><rect class="cls-1" x="321.5" y="-1762" width="18" height="18" rx="2"/></clipPath><clipPath id="clip-path-150"><rect class="cls-1" x="546.71" y="-2193" width="397" height="40" rx="4"/></clipPath><clipPath id="clip-path-151"><path class="cls-1" d="M918.18-2170.23l-4.5-4.5a.72.72,0,0,1-.22-.52.72.72,0,0,1,.22-.52.72.72,0,0,1,1.05,0l4,4,4-4a.72.72,0,0,1,1.05,0,.71.71,0,0,1,0,1l-4.5,4.5A.73.73,0,0,1,918.18-2170.23Z"/></clipPath><clipPath id="clip-path-152"><rect class="cls-1" x="546.71" y="-1773.5" width="397" height="40" rx="4"/></clipPath><clipPath id="clip-path-153"><path class="cls-1" d="M918.18-1750.73l-4.5-4.5a.72.72,0,0,1-.22-.52.72.72,0,0,1,.22-.52.73.73,0,0,1,1.05,0l4,4,4-4a.73.73,0,0,1,1.05,0,.71.71,0,0,1,0,1l-4.5,4.5A.72.72,0,0,1,918.18-1750.73Z"/></clipPath><clipPath id="clip-path-154"><rect class="cls-1" x="546.71" y="-2132" width="397" height="40" rx="4"/></clipPath><clipPath id="clip-path-155"><path class="cls-1" d="M918.18-2109.23l-4.5-4.5a.72.72,0,0,1-.22-.52.72.72,0,0,1,.22-.52.72.72,0,0,1,1.05,0l4,4,4-4a.72.72,0,0,1,1.05,0,.71.71,0,0,1,0,1l-4.5,4.5A.73.73,0,0,1,918.18-2109.23Z"/></clipPath><clipPath id="clip-path-156"><rect class="cls-1" x="546.71" y="-2072" width="397" height="40" rx="4"/></clipPath><clipPath id="clip-path-157"><path class="cls-1" d="M918.18-2049.23l-4.5-4.5a.72.72,0,0,1-.22-.52.72.72,0,0,1,.22-.52.72.72,0,0,1,1.05,0l4,4,4-4a.72.72,0,0,1,1.05,0,.71.71,0,0,1,0,1l-4.5,4.5A.73.73,0,0,1,918.18-2049.23Z"/></clipPath><clipPath id="clip-path-158"><rect class="cls-1" x="546.71" y="-2012" width="397" height="40" rx="4"/></clipPath><clipPath id="clip-path-159"><path class="cls-1" d="M918.18-1989.23l-4.5-4.5a.72.72,0,0,1-.22-.52.72.72,0,0,1,.22-.52.72.72,0,0,1,1.05,0l4,4,4-4a.72.72,0,0,1,1.05,0,.71.71,0,0,1,0,1l-4.5,4.5A.73.73,0,0,1,918.18-1989.23Z"/></clipPath><clipPath id="clip-path-160"><rect class="cls-1" x="546.71" y="-1952" width="397" height="40" rx="4"/></clipPath><clipPath id="clip-path-161"><path class="cls-1" d="M918.18-1929.23l-4.5-4.5a.72.72,0,0,1-.22-.52.72.72,0,0,1,.22-.52.73.73,0,0,1,1.05,0l4,4,4-4a.73.73,0,0,1,1.05,0,.71.71,0,0,1,0,1l-4.5,4.5A.72.72,0,0,1,918.18-1929.23Z"/></clipPath><clipPath id="clip-path-162"><rect class="cls-1" x="546.71" y="-1892" width="397" height="40" rx="4"/></clipPath><clipPath id="clip-path-163"><path class="cls-1" d="M918.18-1869.23l-4.5-4.5a.72.72,0,0,1-.22-.52.72.72,0,0,1,.22-.52.73.73,0,0,1,1.05,0l4,4,4-4a.73.73,0,0,1,1.05,0,.71.71,0,0,1,0,1l-4.5,4.5A.72.72,0,0,1,918.18-1869.23Z"/></clipPath><clipPath id="clip-path-164"><rect class="cls-1" x="546.71" y="-1833" width="397" height="40" rx="4"/></clipPath><clipPath id="clip-path-165"><path class="cls-1" d="M918.18-1810.23l-4.5-4.5a.72.72,0,0,1-.22-.52.72.72,0,0,1,.22-.52.73.73,0,0,1,1.05,0l4,4,4-4a.73.73,0,0,1,1.05,0,.71.71,0,0,1,0,1l-4.5,4.5A.72.72,0,0,1,918.18-1810.23Z"/></clipPath><clipPath id="clip-path-166"><rect class="cls-1" x="290.5" y="-1658" width="20" height="20" rx="2"/></clipPath><clipPath id="clip-path-167"><path class="cls-1" d="M936.7-1651.7l6,6a1,1,0,0,1,0,1.4,1,1,0,0,1-1.4,0l-5.3-5.3-5.3,5.3a1,1,0,0,1-1.4,0,1,1,0,0,1-.3-.7,1,1,0,0,1,.3-.7l6-6A1,1,0,0,1,936.7-1651.7Z"/></clipPath><clipPath id="clip-path-168"><path class="cls-1" d="M874.75-1561.5a.76.76,0,0,0-.75.75v3.75a.76.76,0,0,0,.75.75.76.76,0,0,0,.75-.75v-3.75A.76.76,0,0,0,874.75-1561.5Zm6,1.5a6,6,0,0,0-6-6,6,6,0,0,0-6,6,6,6,0,0,0,6,6A6,6,0,0,0,880.75-1560Zm1.5,0a7.52,7.52,0,0,1-7.5,7.5,7.52,7.52,0,0,1-7.5-7.5,7.52,7.52,0,0,1,7.5-7.5A7.52,7.52,0,0,1,882.25-1560Zm-6.75-3a.76.76,0,0,1-.75.75.76.76,0,0,1-.75-.75.76.76,0,0,1,.75-.75A.76.76,0,0,1,875.5-1563Z"/></clipPath><clipPath id="clip-path-169"><path class="cls-1" d="M585.5-1541.75h-6a.76.76,0,0,0-.75.75v12a.76.76,0,0,0,.75.75h12a.76.76,0,0,0,.75-.75v-6a.76.76,0,0,0-.75-.75.76.76,0,0,0-.75.75v5.25h-10.5v-10.5h5.25a.76.76,0,0,0,.75-.75A.76.76,0,0,0,585.5-1541.75Zm-.53,6.3,4.73-4.8h-1.2a.76.76,0,0,1-.75-.75.76.76,0,0,1,.75-.75h3.22s0,0,.08,0,0,0,.08,0,0,0,.07,0l.08.08a0,0,0,0,1,0,0l.11.12s0,0,0,0,0,0,0,.08,0,0,0,.08v3.22a.76.76,0,0,1-.75.75.75.75,0,0,1-.75-.75v-1.16L586-1534.4a.74.74,0,0,1-.53.22.74.74,0,0,1-.53-.22A.72.72,0,0,1,585-1535.45Z"/></clipPath><clipPath id="clip-path-170"><rect class="cls-1" x="322.5" y="-1484.5" width="16" height="16" rx="2"/></clipPath><clipPath id="clip-path-171"><rect class="cls-1" x="321.5" y="-1424.5" width="18" height="18" rx="3.99"/></clipPath><clipPath id="clip-path-172"><path class="cls-1" d="M323.49-1424.5h14a2,2,0,0,1,2,2v14a2,2,0,0,1-2,2h-14a2,2,0,0,1-2-2v-14A2,2,0,0,1,323.49-1424.5Z"/></clipPath><clipPath id="clip-path-173"><rect class="cls-1" x="546.71" y="-1496.5" width="397" height="40" rx="4"/></clipPath><clipPath id="clip-path-174"><path class="cls-1" d="M918.18-1473.72l-4.5-4.5a.76.76,0,0,1-.22-.53.76.76,0,0,1,.22-.53.74.74,0,0,1,1.05,0l4,4,4-4a.74.74,0,0,1,1.05,0,.74.74,0,0,1,0,1.06l-4.5,4.5A.74.74,0,0,1,918.18-1473.72Z"/></clipPath><clipPath id="clip-path-175"><rect class="cls-1" x="546.71" y="-1435.5" width="397" height="40" rx="4"/></clipPath><clipPath id="clip-path-176"><path class="cls-1" d="M918.18-1412.72l-4.5-4.5a.76.76,0,0,1-.22-.53.76.76,0,0,1,.22-.53.74.74,0,0,1,1.05,0l4,4,4-4a.74.74,0,0,1,1.05,0,.74.74,0,0,1,0,1.06l-4.5,4.5A.74.74,0,0,1,918.18-1412.72Z"/></clipPath><clipPath id="clip-path-177"><rect class="cls-1" x="290.5" y="-1321" width="20" height="20" rx="2"/></clipPath><clipPath id="clip-path-178"><path class="cls-1" d="M936.7-1314.7l6,6a1,1,0,0,1,0,1.4,1,1,0,0,1-1.4,0l-5.3-5.3-5.3,5.3a1,1,0,0,1-1.4,0,1,1,0,0,1-.3-.7,1,1,0,0,1,.3-.7l6-6A1,1,0,0,1,936.7-1314.7Z"/></clipPath><clipPath id="clip-path-179"><path class="cls-1" d="M874.75-1224.5a.76.76,0,0,0-.75.75v3.75a.76.76,0,0,0,.75.75.76.76,0,0,0,.75-.75v-3.75A.76.76,0,0,0,874.75-1224.5Zm6,1.5a6,6,0,0,0-6-6,6,6,0,0,0-6,6,6,6,0,0,0,6,6A6,6,0,0,0,880.75-1223Zm1.5,0a7.52,7.52,0,0,1-7.5,7.5,7.52,7.52,0,0,1-7.5-7.5,7.52,7.52,0,0,1,7.5-7.5A7.52,7.52,0,0,1,882.25-1223Zm-6.75-3a.76.76,0,0,1-.75.75.76.76,0,0,1-.75-.75.76.76,0,0,1,.75-.75A.76.76,0,0,1,875.5-1226Z"/></clipPath><clipPath id="clip-path-180"><rect class="cls-1" x="322.5" y="-1131" width="16" height="16" rx="2"/></clipPath><clipPath id="clip-path-181"><rect class="cls-1" x="322.5" y="-1070" width="16" height="16" rx="2"/></clipPath><clipPath id="clip-path-182"><rect class="cls-1" x="322.5" y="-1010" width="16" height="16" rx="2"/></clipPath><clipPath id="clip-path-183"><rect class="cls-1" x="321.5" y="-951" width="18" height="18" rx="3.99"/></clipPath><clipPath id="clip-path-184"><path class="cls-1" d="M323.49-951h14a2,2,0,0,1,2,2v14a2,2,0,0,1-2,2h-14a2,2,0,0,1-2-2v-14A2,2,0,0,1,323.49-951Z"/></clipPath><clipPath id="clip-path-185"><rect class="cls-1" x="321.5" y="-891" width="18" height="18" rx="3.99"/></clipPath><clipPath id="clip-path-186"><path class="cls-1" d="M323.49-891h14a2,2,0,0,1,2,2v14a2,2,0,0,1-2,2h-14a2,2,0,0,1-2-2v-14A2,2,0,0,1,323.49-891Z"/></clipPath><clipPath id="clip-path-187"><rect class="cls-1" x="321.5" y="-831" width="18" height="18" rx="3.99"/></clipPath><clipPath id="clip-path-188"><path class="cls-1" d="M323.49-831h14a2,2,0,0,1,2,2v14a2,2,0,0,1-2,2h-14a2,2,0,0,1-2-2v-14A2,2,0,0,1,323.49-831Z"/></clipPath><clipPath id="clip-path-189"><rect class="cls-1" x="321.5" y="-772" width="18" height="18" rx="3.99"/></clipPath><clipPath id="clip-path-190"><path class="cls-1" d="M323.49-772h14a2,2,0,0,1,2,2v14a2,2,0,0,1-2,2h-14a2,2,0,0,1-2-2v-14A2,2,0,0,1,323.49-772Z"/></clipPath><clipPath id="clip-path-191"><rect class="cls-1" x="322.5" y="-711.5" width="16" height="16" rx="2"/></clipPath><clipPath id="clip-path-192"><rect class="cls-1" x="321.5" y="-654" width="18" height="18" rx="3.99"/></clipPath><clipPath id="clip-path-193"><path class="cls-1" d="M323.49-654h14a2,2,0,0,1,2,2v14a2,2,0,0,1-2,2h-14a2,2,0,0,1-2-2v-14A2,2,0,0,1,323.49-654Z"/></clipPath><clipPath id="clip-path-194"><rect class="cls-1" x="546.71" y="-1143" width="397" height="40" rx="4"/></clipPath><clipPath id="clip-path-195"><path class="cls-1" d="M918.18-1120.22l-4.5-4.5a.76.76,0,0,1-.22-.53.76.76,0,0,1,.22-.53.74.74,0,0,1,1.05,0l4,4,4-4a.74.74,0,0,1,1.05,0,.74.74,0,0,1,0,1.06l-4.5,4.5A.74.74,0,0,1,918.18-1120.22Z"/></clipPath><clipPath id="clip-path-196"><rect class="cls-1" x="546.71" y="-723.5" width="397" height="40" rx="4"/></clipPath><clipPath id="clip-path-197"><path class="cls-1" d="M918.18-700.72l-4.5-4.5a.76.76,0,0,1-.22-.53.76.76,0,0,1,.22-.53.74.74,0,0,1,1.05,0l4,4,4-4a.74.74,0,0,1,1.05,0,.74.74,0,0,1,0,1.06l-4.5,4.5A.74.74,0,0,1,918.18-700.72Z"/></clipPath><clipPath id="clip-path-198"><rect class="cls-1" x="546.71" y="-665" width="397" height="40" rx="4"/></clipPath><clipPath id="clip-path-199"><path class="cls-1" d="M918.18-642.22l-4.5-4.5a.76.76,0,0,1-.22-.53.76.76,0,0,1,.22-.53.73.73,0,0,1,1.05,0l4,4,4-4a.73.73,0,0,1,1.05,0,.74.74,0,0,1,0,1.06l-4.5,4.5A.72.72,0,0,1,918.18-642.22Z"/></clipPath><clipPath id="clip-path-200"><rect class="cls-1" x="546.71" y="-1082" width="397" height="40" rx="4"/></clipPath><clipPath id="clip-path-201"><path class="cls-1" d="M918.18-1059.22l-4.5-4.5a.76.76,0,0,1-.22-.53.76.76,0,0,1,.22-.53.74.74,0,0,1,1.05,0l4,4,4-4a.74.74,0,0,1,1.05,0,.74.74,0,0,1,0,1.06l-4.5,4.5A.74.74,0,0,1,918.18-1059.22Z"/></clipPath><clipPath id="clip-path-202"><rect class="cls-1" x="546.71" y="-1022" width="397" height="40" rx="4"/></clipPath><clipPath id="clip-path-203"><path class="cls-1" d="M918.18-999.22l-4.5-4.5a.76.76,0,0,1-.22-.53.76.76,0,0,1,.22-.53.74.74,0,0,1,1.05,0l4,4,4-4a.74.74,0,0,1,1.05,0,.74.74,0,0,1,0,1.06l-4.5,4.5A.74.74,0,0,1,918.18-999.22Z"/></clipPath><clipPath id="clip-path-204"><rect class="cls-1" x="546.71" y="-962" width="397" height="40" rx="4"/></clipPath><clipPath id="clip-path-205"><path class="cls-1" d="M918.18-939.22l-4.5-4.5a.76.76,0,0,1-.22-.53.76.76,0,0,1,.22-.53.74.74,0,0,1,1.05,0l4,4,4-4a.74.74,0,0,1,1.05,0,.74.74,0,0,1,0,1.06l-4.5,4.5A.74.74,0,0,1,918.18-939.22Z"/></clipPath><clipPath id="clip-path-206"><rect class="cls-1" x="546.71" y="-902" width="397" height="40" rx="4"/></clipPath><clipPath id="clip-path-207"><path class="cls-1" d="M918.18-879.22l-4.5-4.5a.76.76,0,0,1-.22-.53.76.76,0,0,1,.22-.53.74.74,0,0,1,1.05,0l4,4,4-4a.74.74,0,0,1,1.05,0,.74.74,0,0,1,0,1.06l-4.5,4.5A.74.74,0,0,1,918.18-879.22Z"/></clipPath><clipPath id="clip-path-208"><rect class="cls-1" x="546.71" y="-842" width="397" height="40" rx="4"/></clipPath><clipPath id="clip-path-209"><path class="cls-1" d="M918.18-819.22l-4.5-4.5a.76.76,0,0,1-.22-.53.76.76,0,0,1,.22-.53.74.74,0,0,1,1.05,0l4,4,4-4a.74.74,0,0,1,1.05,0,.74.74,0,0,1,0,1.06l-4.5,4.5A.74.74,0,0,1,918.18-819.22Z"/></clipPath><clipPath id="clip-path-210"><rect class="cls-1" x="546.71" y="-783" width="397" height="40" rx="4"/></clipPath><clipPath id="clip-path-211"><path class="cls-1" d="M918.18-760.22l-4.5-4.5a.76.76,0,0,1-.22-.53.76.76,0,0,1,.22-.53.74.74,0,0,1,1.05,0l4,4,4-4a.74.74,0,0,1,1.05,0,.74.74,0,0,1,0,1.06l-4.5,4.5A.74.74,0,0,1,918.18-760.22Z"/></clipPath><clipPath id="clip-path-212"><path class="cls-1" d="M378.74-536.06c-.2-2.94-.44-6.54-.42-8.65h-.07c-.7,2.11-1.51,4.4-2.62,7.29l-4.14,10.67h-.94l-3.87-10.4c-1.09-3.06-1.94-5.4-2.53-7.56h-.09c0,2.28-.17,5.69-.42,8.94l-.6,9h-1.36l1.43-19.59h1.6l4.21,11.28c.9,2.5,1.6,4.47,2.14,6.37h0c.52-1.8,1.22-3.72,2.22-6.35l4.35-11.3h1.65l1.34,19.59H379.3Z"/></clipPath><clipPath id="clip-path-213"><path class="cls-1" d="M393.07-534.21c-3.06-.1-7.07.36-7.07,3.72a2.68,2.68,0,0,0,2.8,2.91,4.22,4.22,0,0,0,4.13-2.79,2.61,2.61,0,0,0,.14-.85Zm1.37,4.15a24.22,24.22,0,0,0,.19,3.31h-1.24l-.19-2h-.1a5.24,5.24,0,0,1-4.45,2.33,3.81,3.81,0,0,1-4.11-3.84c0-3.23,2.85-5.18,8.51-5.1v-.34c0-1.39-.27-4.16-3.57-4.13a5.85,5.85,0,0,0-3.48,1l-.43-1a7.4,7.4,0,0,1,4.05-1.19c4,0,4.79,3,4.79,5.52v5.41Z"/></clipPath><clipPath id="clip-path-214"><path class="cls-1" d="M399.69-537.35c0-1.28-.05-2.23-.13-3.33h1.29l.12,2.53h0a5.25,5.25,0,0,1,4.79-2.87c1.34,0,4.86.66,4.86,5.91v8.36h-1.36V-535c0-2.53-1-4.81-3.86-4.81a4.44,4.44,0,0,0-4.18,3.18,3.71,3.71,0,0,0-.2,1.24v8.63h-1.36v-10.6Z"/></clipPath><clipPath id="clip-path-215"><path class="cls-1" d="M423.28-534.21c-3.06-.1-7,.36-7,3.72a2.67,2.67,0,0,0,2.79,2.91,4.22,4.22,0,0,0,4.13-2.79,2.63,2.63,0,0,0,.15-.85v-3Zm1.36,4.15a24.22,24.22,0,0,0,.2,3.31H423.6l-.19-2h-.1a5.27,5.27,0,0,1-4.45,2.33,3.81,3.81,0,0,1-4.11-3.84c0-3.23,2.85-5.18,8.51-5.1v-.34c0-1.39-.27-4.16-3.57-4.13a5.85,5.85,0,0,0-3.48,1l-.44-1a7.46,7.46,0,0,1,4.06-1.19c4,0,4.79,3,4.79,5.52v5.41Z"/></clipPath><clipPath id="clip-path-216"><path class="cls-1" d="M439.64-535.35a4.73,4.73,0,0,0-.17-1.34,4.53,4.53,0,0,0-4.33-3.18c-3,0-5,2.43-5,6.12,0,3.14,1.65,5.83,4.93,5.83a4.53,4.53,0,0,0,4.3-3.13,4.45,4.45,0,0,0,.27-1.48Zm1.36,6.56c0,3.57-.73,5.35-1.9,6.44a7,7,0,0,1-4.73,1.65,8,8,0,0,1-4.43-1.19l.49-1.09a7.65,7.65,0,0,0,4.13,1.16c2.94,0,5.06-1.53,5.06-5.66v-2h-.05a5.21,5.21,0,0,1-4.86,2.7c-3.53,0-6-3.06-6-6.85,0-4.86,3.21-7.42,6.27-7.42a4.92,4.92,0,0,1,4.71,2.68h.05l.05-2.36h1.29c-.05,1.05-.12,2.14-.12,3.6v8.31Z"/></clipPath><clipPath id="clip-path-217"><path class="cls-1" d="M455.51-535c0-1.95-.78-4.91-4.16-4.91-3.08,0-4.42,2.77-4.64,4.91Zm-8.87,1.09c0,4.47,2.43,6.22,5.32,6.22a8.21,8.21,0,0,0,3.87-.78l.34,1.1a9.31,9.31,0,0,1-4.4.9c-4,0-6.52-2.94-6.52-7,0-4.64,2.68-7.56,6.27-7.56,4.57,0,5.45,4.31,5.45,6.3a4.06,4.06,0,0,1-.05.85Z"/></clipPath><clipPath id="clip-path-218"><polygon class="cls-1" points="458.01 -545.97 457.33 -545.97 457.33 -546.34 459.13 -546.34 459.13 -545.97 458.45 -545.97 458.45 -543.96 458.01 -543.96 458.01 -545.97"/></clipPath><clipPath id="clip-path-219"><path class="cls-1" d="M461.51-544.93c0-.31,0-.68,0-1a8,8,0,0,1-.29.92l-.34,1h-.34l-.32-1c-.1-.29-.17-.63-.24-.92,0,.31,0,.68,0,1l-.05.94h-.41l.17-2.38h.58l.32,1a8.41,8.41,0,0,1,.21.83c.08-.27.15-.56.25-.83l.34-1h.56L462-544h-.41Z"/></clipPath><clipPath id="clip-path-220"><path class="cls-1" d="M366-551.15a3.59,3.59,0,0,1-1.46.27,2.65,2.65,0,0,1-2.86-2.82,2.82,2.82,0,0,1,3-3,3.29,3.29,0,0,1,1.37.25l-.22.8a2.71,2.71,0,0,0-1.1-.22,1.87,1.87,0,0,0-2,2.07,1.83,1.83,0,0,0,1.95,2,2.51,2.51,0,0,0,1.12-.22Z"/></clipPath><clipPath id="clip-path-221"><path class="cls-1" d="M367.48-553c0,.78.39,1.36,1,1.36s1-.58,1-1.38c0-.63-.3-1.36-1-1.36S367.48-553.68,367.48-553Zm3.07,0a2,2,0,0,1-2.07,2.17,2,2,0,0,1-2-2.09,2,2,0,0,1,2.09-2.14A1.91,1.91,0,0,1,370.55-553Z"/></clipPath><clipPath id="clip-path-222"><path class="cls-1" d="M371.37-553.82c0-.47,0-.85,0-1.22h.9l.05.61h0a1.45,1.45,0,0,1,1.29-.71c.7,0,1.43.47,1.43,1.73V-551h-1v-2.28c0-.59-.22-1-.78-1a.88.88,0,0,0-.8.61,1.74,1.74,0,0,0-.05.34V-551h-1Z"/></clipPath><clipPath id="clip-path-223"><path class="cls-1" d="M376.14-553.82c0-.47,0-.85,0-1.22h.9l.05.61h0a1.45,1.45,0,0,1,1.29-.71c.71,0,1.44.47,1.44,1.73V-551h-1v-2.28c0-.59-.21-1-.77-1a.87.87,0,0,0-.8.61,1.21,1.21,0,0,0,0,.34V-551h-1Z"/></clipPath><clipPath id="clip-path-224"><path class="cls-1" d="M383.38-553.43a.9.9,0,0,0-.85-1,1,1,0,0,0-.95,1Zm-1.78.7a1.11,1.11,0,0,0,1.24,1.05,3,3,0,0,0,1.12-.2l.15.71a3.77,3.77,0,0,1-1.41.26,1.92,1.92,0,0,1-2.09-2,2,2,0,0,1,2-2.19,1.76,1.76,0,0,1,1.75,2c0,.2,0,.34,0,.44Z"/></clipPath><clipPath id="clip-path-225"><path class="cls-1" d="M388.14-551.1a2.88,2.88,0,0,1-1.14.22,2,2,0,0,1-2.09-2.07,2.1,2.1,0,0,1,2.26-2.16,2.51,2.51,0,0,1,1,.19l-.2.76a1.73,1.73,0,0,0-.78-.17A1.22,1.22,0,0,0,386-553a1.21,1.21,0,0,0,1.24,1.31,1.72,1.72,0,0,0,.81-.17Z"/></clipPath><clipPath id="clip-path-226"><path class="cls-1" d="M390.18-556.08v1h1v.75h-1v1.8c0,.49.12.76.54.76a1.61,1.61,0,0,0,.39,0l0,.78a2.91,2.91,0,0,1-.73.09,1.14,1.14,0,0,1-.87-.34,1.6,1.6,0,0,1-.32-1.12v-1.89h-.58V-555h.58v-.76Z"/></clipPath><clipPath id="clip-path-227"><path class="cls-1" d="M392.88-551l-1.36-5.59h1.09l.54,2.55c.14.68.27,1.39.36,1.95h0c.09-.59.24-1.27.41-2l.61-2.53h1.07l.56,2.58c.14.65.26,1.28.34,1.89h0c.1-.61.24-1.26.39-1.94l.58-2.53h1.05L397.06-551H396l-.59-2.62a17.06,17.06,0,0,1-.31-1.78H395c-.1.61-.22,1.14-.37,1.78L394-551Z"/></clipPath><clipPath id="clip-path-228"><path class="cls-1" d="M399-551V-555h1.49V-551Zm1.6-5.18c0,.32-.32.56-.85.56s-.82-.24-.82-.56.36-.56.85-.56A.75.75,0,0,1,400.6-556.16Z"/></clipPath><clipPath id="clip-path-229"><path class="cls-1" d="M401.05-551.93a2.23,2.23,0,0,0,1,.29c.44,0,.66-.19.66-.43s-.17-.42-.66-.59c-.78-.26-1.12-.7-1.12-1.19a1.36,1.36,0,0,1,1.53-1.26,2.38,2.38,0,0,1,1.07.24l-.19.73a1.83,1.83,0,0,0-.85-.24c-.37,0-.56.17-.56.41s.19.39.7.56c.73.27,1.07.63,1.07,1.24s-.58,1.26-1.65,1.26a2.7,2.7,0,0,1-1.24-.29Z"/></clipPath><clipPath id="clip-path-230"><path class="cls-1" d="M407.07-553.43a.9.9,0,0,0-.85-1,1,1,0,0,0-.94,1Zm-1.79.7a1.09,1.09,0,0,0,1.23,1.05,3,3,0,0,0,1.12-.2l.15.71a3.77,3.77,0,0,1-1.41.26,1.92,1.92,0,0,1-2.09-2,2,2,0,0,1,2-2.19,1.76,1.76,0,0,1,1.75,2c0,.2,0,.34,0,.44Z"/></clipPath><clipPath id="clip-path-231"><polygon class="cls-1" points="336.4 -558.93 333.44 -543.84 318.34 -540.87 333.44 -537.9 336.4 -522.81 339.37 -537.9 354.46 -540.87 339.37 -543.84 336.4 -558.93"/></clipPath><clipPath id="clip-path-232"><path class="cls-1" d="M340.05-551.2a11,11,0,0,1,6.7,6.71l3.82.75A14.48,14.48,0,0,0,339.29-555Z"/></clipPath><clipPath id="clip-path-233"><path class="cls-1" d="M346.73-537.22a11,11,0,0,1-6.71,6.7l-.75,3.82A14.48,14.48,0,0,0,350.54-538Z"/></clipPath><clipPath id="clip-path-234"><path class="cls-1" d="M332.75-530.52a11,11,0,0,1-6.7-6.7l-3.82-.76a14.51,14.51,0,0,0,11.28,11.28Z"/></clipPath><clipPath id="clip-path-235"><path class="cls-1" d="M326.07-544.52a11,11,0,0,1,6.71-6.7l.75-3.82a14.48,14.48,0,0,0-11.27,11.28Z"/></clipPath><clipPath id="clip-path-236"><path class="cls-1" d="M936.7-542.7l6,6a1,1,0,0,1,0,1.4,1,1,0,0,1-1.4,0l-5.3-5.3-5.3,5.3a1,1,0,0,1-1.4,0,1,1,0,0,1-.3-.7,1,1,0,0,1,.3-.7l6-6A1,1,0,0,1,936.7-542.7Z"/></clipPath><clipPath id="clip-path-237"><rect class="cls-1" x="290.5" y="-549" width="20" height="20" rx="2"/></clipPath><clipPath id="clip-path-238"><path class="cls-1" d="M875.75-452.5a.76.76,0,0,0-.75.75V-448a.76.76,0,0,0,.75.75.76.76,0,0,0,.75-.75v-3.75A.76.76,0,0,0,875.75-452.5Zm6,1.5a6,6,0,0,0-6-6,6,6,0,0,0-6,6,6,6,0,0,0,6,6A6,6,0,0,0,881.75-451Zm1.5,0a7.52,7.52,0,0,1-7.5,7.5,7.52,7.52,0,0,1-7.5-7.5,7.52,7.52,0,0,1,7.5-7.5A7.52,7.52,0,0,1,883.25-451Zm-6.75-3a.76.76,0,0,1-.75.75A.76.76,0,0,1,875-454a.76.76,0,0,1,.75-.75A.76.76,0,0,1,876.5-454Z"/></clipPath><clipPath id="clip-path-239"><rect class="cls-1" x="322.5" y="-373" width="16" height="16" rx="2"/></clipPath><clipPath id="clip-path-240"><rect class="cls-1" x="322.5" y="-312" width="16" height="16" rx="2"/></clipPath><clipPath id="clip-path-241"><rect class="cls-1" x="322.5" y="-252" width="16" height="16" rx="2"/></clipPath><clipPath id="clip-path-242"><rect class="cls-1" x="321.5" y="-193" width="18" height="18" rx="3.99"/></clipPath><clipPath id="clip-path-243"><rect class="cls-1" x="321.5" y="-193" width="18" height="18" rx="2"/></clipPath><clipPath id="clip-path-244"><rect class="cls-1" x="322.5" y="-132" width="16" height="16" rx="2"/></clipPath><clipPath id="clip-path-245"><rect class="cls-1" x="321.5" y="-73" width="18" height="18" rx="3.99"/></clipPath><clipPath id="clip-path-246"><rect class="cls-1" x="321.5" y="-73" width="18" height="18" rx="2"/></clipPath><clipPath id="clip-path-247"><rect class="cls-1" x="546.57" y="-385" width="397" height="40" rx="4"/></clipPath><clipPath id="clip-path-248"><path class="cls-1" d="M918-362.22l-4.5-4.5a.76.76,0,0,1-.22-.53.76.76,0,0,1,.22-.53.72.72,0,0,1,1.05,0l4,4,4-4a.72.72,0,0,1,1.05,0,.74.74,0,0,1,0,1.06l-4.5,4.5A.73.73,0,0,1,918-362.22Z"/></clipPath><clipPath id="clip-path-249"><rect class="cls-1" x="546.57" y="-324" width="397" height="40" rx="4"/></clipPath><clipPath id="clip-path-250"><path class="cls-1" d="M918-301.22l-4.5-4.5a.76.76,0,0,1-.22-.53.76.76,0,0,1,.22-.53.72.72,0,0,1,1.05,0l4,4,4-4a.72.72,0,0,1,1.05,0,.74.74,0,0,1,0,1.06l-4.5,4.5A.73.73,0,0,1,918-301.22Z"/></clipPath><clipPath id="clip-path-251"><rect class="cls-1" x="546.57" y="-264" width="397" height="40" rx="4"/></clipPath><clipPath id="clip-path-252"><path class="cls-1" d="M918-241.22l-4.5-4.5a.76.76,0,0,1-.22-.53.76.76,0,0,1,.22-.53.73.73,0,0,1,1.05,0l4,4,4-4a.73.73,0,0,1,1.05,0,.74.74,0,0,1,0,1.06l-4.5,4.5A.72.72,0,0,1,918-241.22Z"/></clipPath><clipPath id="clip-path-253"><rect class="cls-1" x="546.57" y="-204" width="397" height="40" rx="4"/></clipPath><clipPath id="clip-path-254"><path class="cls-1" d="M918-181.22l-4.5-4.5a.76.76,0,0,1-.22-.53.76.76,0,0,1,.22-.53.73.73,0,0,1,1.05,0l4,4,4-4a.73.73,0,0,1,1.05,0,.74.74,0,0,1,0,1.06l-4.5,4.5A.72.72,0,0,1,918-181.22Z"/></clipPath><clipPath id="clip-path-255"><rect class="cls-1" x="546.57" y="-144" width="397" height="40" rx="4"/></clipPath><clipPath id="clip-path-256"><path class="cls-1" d="M918-121.23l-4.5-4.5a.72.72,0,0,1-.22-.52.72.72,0,0,1,.22-.52.71.71,0,0,1,1.05,0l4,4,4-4a.71.71,0,0,1,1.05,0,.71.71,0,0,1,0,1l-4.5,4.5A.71.71,0,0,1,918-121.23Z"/></clipPath><clipPath id="clip-path-257"><rect class="cls-1" x="546.57" y="-84" width="397" height="40" rx="4"/></clipPath><clipPath id="clip-path-258"><path class="cls-1" d="M918-61.23l-4.5-4.5a.72.72,0,0,1-.22-.52.72.72,0,0,1,.22-.52.71.71,0,0,1,1.05,0l4,4,4-4a.71.71,0,0,1,1.05,0,.71.71,0,0,1,0,1l-4.5,4.5A.71.71,0,0,1,918-61.23Z"/></clipPath><clipPath id="clip-path-259"><rect class="cls-1" x="290.5" y="31.22" width="20" height="20" rx="2"/></clipPath><clipPath id="clip-path-260"><path class="cls-1" d="M935.3,44.92l-6-6a1,1,0,0,1,0-1.4,1,1,0,0,1,1.4,0l5.3,5.3,5.3-5.3a1,1,0,1,1,1.4,1.4l-6,6A1,1,0,0,1,935.3,44.92Z"/></clipPath><clipPath id="clip-path-261"><path class="cls-2" d="M367.07,128.93a3.9,3.9,0,0,1-1.57.28,2.86,2.86,0,0,1-3.1-3,3,3,0,0,1,3.24-3.18,3.4,3.4,0,0,1,1.48.27l-.24.87a3.14,3.14,0,0,0-1.19-.23,2,2,0,0,0-2.13,2.21,2,2,0,0,0,2.12,2.17,3.08,3.08,0,0,0,1.21-.22Z"/></clipPath><clipPath id="clip-path-262"><path class="cls-2" d="M369.62,125.48c-.79,0-1.1.75-1.1,1.47s.41,1.47,1.09,1.47,1.07-.62,1.07-1.49C370.68,126.26,370.38,125.48,369.62,125.48Zm0-.8a2.09,2.09,0,0,1,2.18,2.22,2.16,2.16,0,0,1-2.25,2.31,2.1,2.1,0,0,1-2.2-2.23A2.16,2.16,0,0,1,369.65,124.68Z"/></clipPath><clipPath id="clip-path-263"><path class="cls-2" d="M372.55,126.07c0-.5,0-.92,0-1.3h1l.06.66h0a1.56,1.56,0,0,1,1.39-.75c.77,0,1.56.49,1.56,1.86v2.58h-1.11v-2.46c0-.62-.24-1.1-.85-1.1a.92.92,0,0,0-.86.64,1.23,1.23,0,0,0,0,.35v2.55h-1.11Z"/></clipPath><clipPath id="clip-path-264"><path class="cls-2" d="M377.52,126.07c0-.5,0-.92,0-1.3h1l.06.66h0a1.56,1.56,0,0,1,1.4-.75c.76,0,1.55.49,1.55,1.86v2.58h-1.11v-2.46c0-.62-.24-1.1-.84-1.1a.93.93,0,0,0-.87.64,1.25,1.25,0,0,0,0,.35v2.55h-1.12Z"/></clipPath><clipPath id="clip-path-265"><path class="cls-2" d="M384.3,125.43a.93.93,0,0,1,.91,1.06h-1.92A1.07,1.07,0,0,1,384.3,125.43Zm-1,1.83a1.19,1.19,0,0,0,1.35,1.11,3.72,3.72,0,0,0,1.22-.19l.16.75a4.18,4.18,0,0,1-1.53.28,2.07,2.07,0,0,1-2.26-2.2,2.14,2.14,0,0,1,2.14-2.33,1.89,1.89,0,0,1,1.89,2.12,4.19,4.19,0,0,1,0,.46Z"/></clipPath><clipPath id="clip-path-266"><path class="cls-2" d="M390.19,129a3.31,3.31,0,0,1-1.24.23,2.1,2.1,0,0,1-2.26-2.22,2.25,2.25,0,0,1,2.44-2.32,2.65,2.65,0,0,1,1.07.2l-.19.82a2,2,0,0,0-.84-.17,1.41,1.41,0,0,0,0,2.82,2.1,2.1,0,0,0,.87-.18Z"/></clipPath><clipPath id="clip-path-267"><path class="cls-2" d="M392.25,123.66v1.11h1.06v.83h-1.06v1.91c0,.53.14.8.57.8a1.58,1.58,0,0,0,.43-.05l0,.84a2.49,2.49,0,0,1-.8.11,1.29,1.29,0,0,1-1-.36,1.73,1.73,0,0,1-.34-1.21v-2h-.63v-.83h.63V124Z"/></clipPath><clipPath id="clip-path-268"><path class="cls-2" d="M395,129.12l-1.49-6h1.18l.57,2.72c.15.73.29,1.5.4,2.1h0c.1-.63.27-1.35.45-2.11l.66-2.71h1.16l.61,2.76c.15.71.28,1.37.37,2h0c.11-.67.25-1.35.41-2.08l.63-2.71h1.12l-1.63,6h-1.19l-.63-2.83a17.23,17.23,0,0,1-.33-1.9h0a18.17,18.17,0,0,1-.42,1.9l-.7,2.83Z"/></clipPath><clipPath id="clip-path-269"><path class="cls-2" d="M401.4,124.77v4.35h1.12v-4.35Zm.57-.63a.57.57,0,0,0,.62-.58.6.6,0,0,0-.61-.6.59.59,0,0,0-.63.6A.58.58,0,0,0,402,124.14Z"/></clipPath><clipPath id="clip-path-270"><path class="cls-2" d="M403.48,128.1a2.5,2.5,0,0,0,1.12.31c.49,0,.71-.19.71-.48s-.19-.45-.73-.63c-.85-.29-1.22-.76-1.21-1.26,0-.77.64-1.37,1.66-1.37a2.86,2.86,0,0,1,1.16.25l-.21.79a2,2,0,0,0-.93-.25c-.4,0-.62.19-.62.46s.21.41.77.61c.79.29,1.17.68,1.17,1.32s-.63,1.37-1.79,1.37a2.72,2.72,0,0,1-1.33-.31Z"/></clipPath><clipPath id="clip-path-271"><path class="cls-2" d="M408.92,125.43a1.08,1.08,0,0,0-1,1.06h1.93A.94.94,0,0,0,408.92,125.43Zm.06-.75a1.88,1.88,0,0,1,1.89,2.12,4.19,4.19,0,0,1,0,.46H407.9a1.19,1.19,0,0,0,1.35,1.11,3.72,3.72,0,0,0,1.22-.19l.17.75a4.19,4.19,0,0,1-1.54.28,2.07,2.07,0,0,1-2.26-2.2A2.15,2.15,0,0,1,409,124.68Z"/></clipPath><clipPath id="clip-path-272"><path class="cls-2" d="M411.45,124.8h-.06v-.14h.07c.07,0,.11,0,.11.07S411.51,124.8,411.45,124.8Zm0,.28h-.14v-.51l.21,0a.26.26,0,0,1,.18,0,.13.13,0,0,1,.06.11.13.13,0,0,1-.11.12h0c.05,0,.07,0,.1.13s0,.1,0,.12h-.13l0-.11a.1.1,0,0,0-.11-.09h-.06Zm-.34-.26a.4.4,0,0,1,.4-.42.41.41,0,0,1,.41.42.41.41,0,1,1-.81,0Zm.94,0a.53.53,0,0,0-.53-.52.53.53,0,0,0-.54.52.54.54,0,0,0,1.07,0Z"/></clipPath><clipPath id="clip-path-273"><path class="cls-1" d="M117.58,109.42a7.3,7.3,0,0,1,.84,1.41,2.77,2.77,0,0,1-1.75.75,2.41,2.41,0,0,1-2.42-2.41,2.34,2.34,0,0,1,1.08-2,11,11,0,0,1,1.09.91,1,1,0,0,0-.84,1.09,1.1,1.1,0,0,0,1.09,1.08C117.08,110.08,117.5,109.83,117.58,109.42Zm6.09-3.84a8.13,8.13,0,0,1,3.41-.75c.34,0,.34.17.42.25v.17a1.18,1.18,0,0,1-.33.25h-.09a10.4,10.4,0,0,0-3.75,2.42,12.27,12.27,0,0,0-2.66,5.08.48.48,0,0,1-.84,0,11,11,0,0,0-2.66-5.08,10.4,10.4,0,0,0-3.75-2.42h-.09a1.18,1.18,0,0,1-.33-.25v-.17c0-.08.08-.25.42-.25a8.13,8.13,0,0,1,3.41.75,15,15,0,0,1,3.17,1.59c.08,0,.17.08.25.08s.17,0,.17-.08A23.8,23.8,0,0,1,123.67,105.58Zm-9.5,5.17a.16.16,0,0,1,0,.25.19.19,0,0,1-.17.17,1.63,1.63,0,0,1-.58.16,1.08,1.08,0,0,1-.5-.08c-.09,0-.17-.17-.25-.25a4.75,4.75,0,0,1-.09-1.17,7.46,7.46,0,0,1,.84-3.58c.08-.08.16-.17.25-.17h.16a3.54,3.54,0,0,1,.75.42c.09.08.17.17.17.25a.31.31,0,0,1-.08.25,3,3,0,0,0-.92,2.17A3.45,3.45,0,0,0,114.17,110.75Zm6.25-8.42a7.83,7.83,0,0,1,5,1.75c.08.09.25.25.16.34s-.25.16-.33.16a14.41,14.41,0,0,0-4.33,1.67,1.71,1.71,0,0,0-.42.25c-.08,0-.08.08-.17.08s-.08,0-.16-.08a1.93,1.93,0,0,0-.42-.25,14.41,14.41,0,0,0-4.33-1.67c-.09,0-.34-.08-.34-.16a.68.68,0,0,1,.17-.34,7.66,7.66,0,0,1,5-1.75Zm9.58,15H110V98.17h20ZM116.67,94a3.33,3.33,0,0,1,6.66,0v.83h-6.66Zm15,.83h-5V94a6.67,6.67,0,0,0-13.34,0v.83h-5a1.67,1.67,0,0,0-1.66,1.67V119a1.67,1.67,0,0,0,1.66,1.67h23.34a1.65,1.65,0,0,0,1.16-.5,1.63,1.63,0,0,0,.5-1.17V96.5A1.67,1.67,0,0,0,131.67,94.83Z"/></clipPath><clipPath id="clip-path-274"><rect class="cls-1" x="290.5" y="132.72" width="20" height="20" rx="2"/></clipPath><clipPath id="clip-path-275"><path class="cls-1" d="M935.3,146.42l-6-6a1,1,0,0,1,0-1.4,1,1,0,0,1,1.4,0l5.3,5.3,5.3-5.3a1,1,0,1,1,1.4,1.4l-6,6A1,1,0,0,1,935.3,146.42Z"/></clipPath><clipPath id="clip-path-276"><rect class="cls-1" x="546.71" y="-343.99" width="397" height="320" rx="4"/></clipPath><clipPath id="clip-path-277"><rect class="cls-1" x="-417.5" y="-3848" width="1440" height="4194"/></clipPath><clipPath id="clip-path-278"><rect class="cls-1" x="-307.5" y="-354" width="1262" height="411"/></clipPath><clipPath id="clip-path-279"><rect class="cls-1" x="630.5" y="272" width="132" height="48" rx="4"/></clipPath><clipPath id="clip-path-280"><rect class="cls-1" x="482.5" y="272" width="132" height="48" rx="4"/></clipPath><clipPath id="clip-path-281"><polygon class="cls-1" points="61 81.94 58.03 97.03 42.94 100 58.03 102.97 61 118.06 63.97 102.97 79.06 100 63.97 97.03 61 81.94"/></clipPath><clipPath id="clip-path-282"><path class="cls-1" d="M64.65,89.67a11,11,0,0,1,6.7,6.71l3.82.75A14.48,14.48,0,0,0,63.89,85.86Z"/></clipPath><clipPath id="clip-path-283"><path class="cls-1" d="M71.33,103.65a11,11,0,0,1-6.71,6.7l-.75,3.82a14.48,14.48,0,0,0,11.27-11.28Z"/></clipPath><clipPath id="clip-path-284"><path class="cls-1" d="M57.35,110.35a11,11,0,0,1-6.7-6.7l-3.82-.76a14.51,14.51,0,0,0,11.28,11.28Z"/></clipPath><clipPath id="clip-path-285"><path class="cls-1" d="M50.67,96.35a11,11,0,0,1,6.71-6.7l.75-3.82A14.48,14.48,0,0,0,46.86,97.11Z"/></clipPath><clipPath id="clip-path-286"><path class="cls-1" d="M-49,36.39A8.41,8.41,0,0,1-57.41,28,8.42,8.42,0,0,1-49,19.58,8.42,8.42,0,0,1-40.59,28,8.41,8.41,0,0,1-49,36.39Zm15.8-6.33V25.92l-4.09-.68a11.89,11.89,0,0,0-1.5-3.61l2.41-3.36-2.92-2.92-3.36,2.41a11.89,11.89,0,0,0-3.61-1.5l-.68-4.07h-4.12l-.68,4.09a11.89,11.89,0,0,0-3.61,1.5l-3.36-2.41-2.92,2.9,2.41,3.36a11.89,11.89,0,0,0-1.5,3.61l-4.07.68V30l4.09.68a11.89,11.89,0,0,0,1.5,3.61l-2.43,3.38,2.92,2.92,3.36-2.41a11.89,11.89,0,0,0,3.61,1.5l.68,4.09h4.12l.68-4.09a11.89,11.89,0,0,0,3.61-1.5l3.36,2.41,2.92-2.92-2.41-3.36a11.89,11.89,0,0,0,1.5-3.61Z"/></clipPath><clipPath id="clip-path-287"><path class="cls-1" d="M-44.87,30.8l-.93-1.53A3.39,3.39,0,0,0-45.56,28a3.46,3.46,0,0,0-.24-1.28l.93-1.54-1.31-1.31-1.54.93A3.46,3.46,0,0,0-49,24.55a3.46,3.46,0,0,0-1.28.24l-1.54-.93-1.31,1.31.93,1.54A3.39,3.39,0,0,0-52.44,28a3.46,3.46,0,0,0,.24,1.28l-.93,1.53,1.31,1.32,1.54-.93a3.39,3.39,0,0,0,1.28.24,3.46,3.46,0,0,0,1.28-.24l1.54.93Z"/></clipPath><clipPath id="clip-path-288"><polygon class="cls-1" points="17.07 13.75 17.07 13.75 14.25 11.12 11.97 9 11.03 9.88 9.14 11.63 22.46 24.02 15.83 30.2 9.14 36.42 11.28 38.35 11.97 39 28.11 24.02 17.07 13.75"/></clipPath><clipPath id="clip-path-289"><rect class="cls-1" x="-729.15" y="-1463" width="1440" height="4194"/></clipPath><clipPath id="clip-path-290"><polygon class="cls-1" points="18.21 11.12 21.03 13.75 36.03 13.75 36.03 32.46 36.03 37.99 38.85 37.99 38.85 11.12 18.21 11.12"/></clipPath><clipPath id="clip-path-292"><polygon class="cls-1" points="21.28 34.3 17.07 37.99 33.21 37.99 33.21 34.3 21.28 34.3"/></clipPath></defs><g class="cls-291"><g class="cls-292"><rect class="cls-293" x="4.15" y="4" width="28.96" height="40"/></g></g><g class="cls-294"><g class="cls-292"><rect class="cls-293" x="13.21" y="6.12" width="30.65" height="36.87"/></g></g><g class="cls-295"><g class="cls-292"><rect class="cls-293" x="12.07" y="29.3" width="26.14" height="13.69"/></g></g></svg>