<?xml version="1.0" encoding="UTF-8"?>
<svg width="24px" height="24px" viewBox="0 0 24 24" version="1.1" xmlns="http://www.w3.org/2000/svg" xmlns:xlink="http://www.w3.org/1999/xlink">
    <title>Group 12 Copy 6</title>
    <defs>
        <path d="M5.2,7.45 C5.15,7.3 5.35,7.05 5.45,6.95 C7.3,5.3 9.65,4.5 12.1,4.5 L12.3,4.5 L12.5,4.5 C14.95,4.5 17.3,5.3 19.15,6.95 C19.25,7.05 19.45,7.3 19.4,7.45 C19.35,7.6 19.1,7.7 18.95,7.7 C16.8,8.15 14.8,9 13.1,10 C12.85,10.15 12.7,10.25 12.5,10.35 C12.45,10.4 12.35,10.4 12.25,10.4 C12.15,10.4 12.1,10.4 12,10.35 C11.85,10.25 11.65,10.1 11.4,10 C9.75,9 7.7,8.15 5.55,7.7 C5.5,7.65 5.25,7.6 5.2,7.45 L5.2,7.45 Z M3.55,13.9 C3.55,12.8 4,11.75 4.75,10.95 C4.85,10.85 4.9,10.7 4.9,10.6 C4.9,10.45 4.8,10.35 4.7,10.25 C4.4,10.05 4.05,9.85 3.75,9.7 C3.7,9.65 3.6,9.65 3.55,9.65 C3.4,9.65 3.25,9.75 3.15,9.9 C2.4,11.4 2,13.1 2,14.8 C2,15.3 2.05,15.85 2.1,16.35 C2.1,16.5 2.25,16.65 2.4,16.7 C2.65,16.8 2.85,16.85 3.1,16.85 C3.4,16.85 3.65,16.8 3.95,16.65 C4.05,16.6 4.15,16.5 4.2,16.35 C4.25,16.25 4.2,16.1 4.15,16 C3.75,15.4 3.55,14.65 3.55,13.9 L3.55,13.9 Z M22,8.3 C22,8.2 21.9,8 21.5,7.95 C21.5,7.95 21.5,7.95 21.45,7.95 C19.55,7.95 18.65,8.3 16.9,8.95 C14.75,9.75 13.15,10.75 12.55,11.2 C12.45,11.25 12.4,11.3 12.3,11.3 C12.2,11.3 12.05,11.2 11.95,11.15 C11.25,10.7 9.75,9.75 7.65,8.95 C5.9,8.3 5,7.95 3.1,7.95 C3.1,7.95 3.1,7.95 3.05,7.95 C2.65,8 2.55,8.2 2.55,8.3 L2.55,8.35 L2.55,8.4 C2.55,8.45 2.55,8.45 2.6,8.5 C2.65,8.6 2.75,8.7 3,8.8 C3.05,8.8 3.05,8.8 3.1,8.85 C5.35,9.7 6.75,10.9 8.05,12.15 C9.75,13.9 10.9,16.5 11.55,19.1 C11.65,19.4 11.9,19.5 12.15,19.5 L12.2,19.5 L12.25,19.5 L12.3,19.5 L12.35,19.5 C12.55,19.5 12.85,19.4 12.95,19.1 C13.65,16.5 14.75,13.9 16.45,12.15 C17.75,10.85 19.2,9.7 21.4,8.85 C21.45,8.85 21.45,8.85 21.5,8.8 C21.75,8.7 21.85,8.6 21.9,8.5 C21.9,8.45 21.95,8.45 21.95,8.4 L21.95,8.35 C22,8.35 22,8.3 22,8.3 L22,8.3 Z M7.4,15.15 C6.6,15.15 5.95,14.5 5.95,13.65 C5.95,12.95 6.45,12.35 7.1,12.2 C6.65,11.75 6.2,11.35 5.7,10.95 C4.85,11.55 4.25,12.6 4.25,13.75 C4.25,15.6 5.7,17.1 7.55,17.1 C8.45,17.1 9.35,16.65 9.95,16.05 C9.6,15.4 9.2,14.75 8.8,14.15 C8.55,14.75 8,15.15 7.4,15.15 L7.4,15.15 Z" id="path-1"></path>
    </defs>
    <g id="Add-User/Edit-User" stroke="none" stroke-width="1" fill="none" fill-rule="evenodd">
        <g id="7.0.0-User-Management" transform="translate(-1149.000000, -704.000000)">
            <g id="Content" transform="translate(125.000000, 102.000000)">
                <g id="Group" transform="translate(35.000000, 111.000000)">
                    <g id="Product" transform="translate(973.000000, 0.000000)">
                        <g id="Logo-/-Automate" transform="translate(16.000000, 491.000000)">
                            <mask id="mask-2" fill="white">
                                <use xlink:href="#path-1"></use>
                            </mask>
                            <use id="Mask" fill="#000000" fill-rule="nonzero" xlink:href="#path-1"></use>
                            <g id="Group" mask="url(#mask-2)" fill="#0067B1">
                                <g id="Rectangle-218">
                                    <polygon points="0 0 24 0 24 24 0 24"></polygon>
                                </g>
                            </g>
                        </g>
                    </g>
                </g>
            </g>
        </g>
    </g>
</svg>