<?xml version="1.0" encoding="UTF-8"?>
<svg width="181px" height="26px" viewBox="0 0 181 26" version="1.1" xmlns="http://www.w3.org/2000/svg" xmlns:xlink="http://www.w3.org/1999/xlink">
    <title>Group 12</title>
    <defs>
        <path d="M11.9999872,17.3176348 C9.06320041,17.3176348 6.68238236,14.9368321 6.68238236,11.9999359 C6.68238236,9.06316795 9.06320041,6.68249338 11.9999872,6.68249338 C14.9369022,6.68249338 17.3177202,9.06316795 17.3177202,11.9999359 C17.3177202,14.9368321 14.9369022,17.3176348 11.9999872,17.3176348 L11.9999872,17.3176348 Z M13.303103,2 L13.7340556,4.58441733 C14.5540326,4.77546624 15.3231055,5.09794142 16.0175535,5.53004533 L16.0175535,5.53004533 L18.1496217,4.0075522 L19.9924221,5.85034075 L18.4699192,7.98239529 C18.9021541,8.67683885 19.2246314,9.44590687 19.4155533,10.2660068 L19.4155533,10.2660068 L21.9999872,10.6969567 L21.9999872,13.3029151 L19.4156815,13.7339932 C19.2246314,14.5539649 18.9021541,15.3231612 18.4699192,16.0176047 L18.4699192,16.0176047 L19.9924221,18.1496593 L18.1496217,19.9923196 L16.0175535,18.4698265 C15.3231055,18.9019304 14.5540326,19.2245338 13.7340556,19.4155827 L13.7340556,19.4155827 L13.303103,22 L10.6969996,22 L10.2660469,19.4155827 C9.44594179,19.2245338 8.67686883,18.9019304 7.98242082,18.4698265 L7.98242082,18.4698265 L5.85035261,19.9923196 L4.00755225,18.1496593 L5.53018336,16.0176047 C5.09794846,15.3231612 4.77534299,14.5539649 4.58442108,13.7339932 L4.58442108,13.7339932 L1.99998718,13.3029151 L1.99998718,10.6969567 L4.58442108,10.2660068 C4.77534299,9.44590687 5.09794846,8.67683885 5.53005514,7.98239529 L5.53005514,7.98239529 L4.00755225,5.85034075 L5.85035261,4.0075522 L7.98242082,5.53004533 C8.67686883,5.09794142 9.44594179,4.77546624 10.2660469,4.58428911 L10.2660469,4.58428911 L10.6969996,2 L13.303103,2 Z M13.7804462,9.38091178 L12.8064752,9.97303518 C12.5568278,9.8736641 12.2849981,9.81852918 11.9999615,9.81852918 C11.7150532,9.81852918 11.4430953,9.8736641 11.1935761,9.97303518 L10.2194769,9.38091178 L9.38103603,10.2196037 L9.97303501,11.1935684 C9.87366329,11.443086 9.8183998,11.7150422 9.8183998,11.9999487 C9.8183998,12.2849834 9.87366329,12.5569396 9.97303501,12.806329 L9.38103603,13.780422 L10.2194769,14.6189856 L11.1935761,14.0269905 C11.4430953,14.1263615 11.7150532,14.1816247 11.9999615,14.1816247 C12.2849981,14.1816247 12.5568278,14.1263615 12.8064752,14.0269905 L13.7804462,14.6189856 L14.6190153,13.780422 L14.0270163,12.806329 C14.126388,12.5569396 14.1815233,12.2849834 14.1815233,11.9999487 C14.1815233,11.7150422 14.126388,11.443086 14.0270163,11.1935684 L14.6190153,10.2196037 L13.7804462,9.38091178 Z" id="path-1"></path>
        <path d="M17.8142104,8.02359424 L17.8142104,20 L2,20 L2,8.02359424 L17.8142104,8.02359424 Z M15.2743131,10.4795053 L4.5400355,10.4795053 L4.5400355,17.5439554 L15.2743131,17.5439554 L15.2743131,10.4795053 Z M22,4 L22,15.9764058 L19.4601026,15.9764058 L19.4601026,6.45591104 L6.86516722,6.45591104 L6.86516722,4 L22,4 Z" id="path-3"></path>
        <path d="M12.000074,1 L13.8082283,10.1922158 L23,12.0005181 L13.8082283,13.8085244 L12.000074,23.0002961 L10.1917717,13.8085244 L1,12.0005181 L10.1917717,10.1922158 L12.000074,1 Z M20.6232409,13.7616551 C19.922866,17.2083104 17.2081179,19.9230585 13.7611666,20.6232853 L13.7611666,20.6232853 L14.2184605,18.2984732 C16.1201758,17.6265219 17.6260334,16.1205163 18.2982807,14.2189491 L18.2982807,14.2189491 Z M3.37675915,13.7616699 L5.70171928,14.2189639 C6.37381854,16.1205311 7.87982424,17.6263887 9.78153948,18.298488 L9.78153948,18.298488 L10.2388334,20.6233001 C6.79188205,19.9230733 4.07713396,17.2083252 3.37675915,13.7616699 L3.37675915,13.7616699 Z M13.7611517,3.37702562 C17.2083992,4.07725239 19.9231473,6.79214852 20.6233741,10.239396 L20.6233741,10.239396 L18.298562,9.78225007 C17.6264627,7.88023875 16.120457,6.37408502 14.2184457,5.70183771 L14.2184457,5.70183771 Z M10.2388927,3.37702562 L9.78159869,5.70183771 C7.87958737,6.37408502 6.37358168,7.88023875 5.70148241,9.78225007 L5.70148241,9.78225007 L3.37667032,10.239544 C4.07674905,6.79214852 6.79164519,4.07725239 10.2388927,3.37702562 L10.2388927,3.37702562 Z" id="path-5"></path>
        <path d="M18.6367404,8.35983981 L18.9461599,8.64200757 L20.9985004,10.5136782 L21,10.5002657 L21,21.5 L3.03942723,21.5 L3.03942723,19.2531602 L3.7787347,18.428547 L5.40256183,16.6177386 L5.40256183,19.1071415 L18.6367404,19.1071415 L18.6367404,8.35983981 Z M20.4537048,2.5 L19.8952252,7.57522365 L18.4608487,6.26712935 L12.8413122,12.5339107 L12.8460609,12.5379598 L11.5309034,14.0045995 L8.40646707,11.1323088 L3,17.1613354 L3,14.2143906 L8.26287946,8.34542774 L8.28062484,8.36175045 L8.29087217,8.35036252 L11.3928144,11.2020283 L17.0071023,4.94144703 L15.5267378,3.5913439 L20.4537048,2.5 Z" id="path-7"></path>
    </defs>
    <g id="Add-User/Edit-User" stroke="none" stroke-width="1" fill="none" fill-rule="evenodd">
        <g id="7.0.0-User-Management" transform="translate(-1149.000000, -283.000000)">
            <g id="Content" transform="translate(125.000000, 102.000000)">
                <g id="Group" transform="translate(35.000000, 111.000000)">
                    <g id="Product" transform="translate(973.000000, 0.000000)">
                        <g id="Group-12" transform="translate(16.000000, 70.000000)">
                            <g id="Logo-/-Automate-Copy-2" transform="translate(0.000000, 1.000000)">
                                <mask id="mask-2" fill="white">
                                    <use xlink:href="#path-1"></use>
                                </mask>
                                <use id="Combined-Shape" fill="#000000" xlink:href="#path-1"></use>
                                <g id="Group" mask="url(#mask-2)" fill="#8CC54C">
                                    <g id="Rectangle-218">
                                        <rect x="0" y="0" width="24" height="24"></rect>
                                    </g>
                                </g>
                            </g>
                            <g id="Logo-/-Control" transform="translate(32.000000, 1.000000)">
                                <mask id="mask-4" fill="white">
                                    <use xlink:href="#path-3"></use>
                                </mask>
                                <use id="Combined-Shape" fill="#000000" xlink:href="#path-3"></use>
                                <g id="Group" mask="url(#mask-4)" fill="#CC3232">
                                    <g id="Rectangle-218">
                                        <polygon points="0 0 24 0 24 24 0 24"></polygon>
                                    </g>
                                </g>
                            </g>
                            <g id="Logo-/-Manage" transform="translate(64.000000, 1.000000)">
                                <mask id="mask-6" fill="white">
                                    <use xlink:href="#path-5"></use>
                                </mask>
                                <use id="Combined-Shape" fill="#000000" xlink:href="#path-5"></use>
                                <g id="Group" mask="url(#mask-6)" fill="#54BEED">
                                    <g id="Rectangle-218">
                                        <polygon points="0 0 24 0 24 24 0 24"></polygon>
                                    </g>
                                </g>
                            </g>
                            <g id="Logo-/-Sell" transform="translate(96.000000, 1.000000)">
                                <mask id="mask-8" fill="white">
                                    <use xlink:href="#path-7"></use>
                                </mask>
                                <use id="Combined-Shape" fill="#000000" xlink:href="#path-7"></use>
                                <g id="Group" mask="url(#mask-8)" fill="#7C5EA3">
                                    <g id="Rectangle-218">
                                        <polygon points="0 0 24 0 24 24 0 24"></polygon>
                                    </g>
                                </g>
                            </g>
                            <g id="Logo-/-Command" transform="translate(128.000000, 3.000000)" fill="#8CC44D" fill-rule="nonzero">
                                <polygon id="Path" points="5.03011063 3.01367859 5.03011063 3.01367859 3.23813372 1.34591471 1.79197691 0 1.19465127 0.555921293 0 1.66776388 0 1.66776388 0 1.66776388 8.4568735 9.53843903 4.24415584 13.4591471 0 17.4091142 0 17.4091142 1.35184223 18.6379928 1.79197691 19.047619 12.0408273 9.53843903"></polygon>
                                <polygon id="Path" stroke="#8CC44D" stroke-width="0.5" points="5.75318903 1.34591471 7.575731 3.01367859 17.2639804 3.01367859 17.2639804 14.8928389 17.2639804 14.8928389 17.2639804 18.4039207 19.0865224 18.4039207 19.0865224 1.34591471"></polygon>
                                <polygon id="Path" points="7.78106303 16.0631995 5.03011063 18.4039207 15.5808222 18.4039207 15.5808222 16.0631995"></polygon>
                            </g>
                            <g id="Group-13" transform="translate(156.000000, 0.500000)">
                                <rect id="Rectangle" fill="#026CCF" x="0" y="0.9" width="25" height="24" rx="12"></rect>
                                <g id="Group-14" transform="translate(4.500000, 2.900000)" fill="#FFFFFF" font-family="Helvetica" font-weight="normal">
                                    <text id="5" font-size="12">
                                        <tspan x="6.66308594" y="11">5</tspan>
                                    </text>
                                    <text id="+" font-size="10">
                                        <tspan x="0.580078125" y="13.6">+</tspan>
                                    </text>
                                </g>
                            </g>
                        </g>
                    </g>
                </g>
            </g>
        </g>
    </g>
</svg>